<svg width="33" height="31" viewBox="0 0 33 31" fill="none" xmlns="http://www.w3.org/2000/svg">
<g clip-path="url(#clip0_1001_2)">
<path fill-rule="evenodd" clip-rule="evenodd" d="M24.1876 7.95092C21.985 7.911 19.8971 8.94957 18.5724 10.744L16.983 12.897C16.8074 13.1349 16.4758 13.1827 16.2425 13.0036C16.0091 12.8246 15.9623 12.4866 16.1379 12.2487L17.7273 10.0956C19.2558 8.02515 21.6649 6.8268 24.2064 6.87286L32.3288 7.02007C32.6208 7.02536 32.8533 7.27099 32.8481 7.56868C32.8429 7.86638 32.602 8.10342 32.31 8.09813L24.1876 7.95092Z" fill="white"/>
<path fill-rule="evenodd" clip-rule="evenodd" d="M24.1876 11.589C21.985 11.5501 19.8971 12.5634 18.5724 14.3142L16.983 16.415C16.8074 16.6471 16.4758 16.6937 16.2425 16.519C16.0091 16.3443 15.9623 16.0145 16.1379 15.7824L17.7273 13.6816C19.2558 11.6614 21.6649 10.4922 24.2064 10.5371L32.3288 10.6808C32.6208 10.6859 32.8533 10.9256 32.8481 11.2161C32.8429 11.5065 32.602 11.7378 32.31 11.7326L24.1876 11.589Z" fill="white"/>
<path fill-rule="evenodd" clip-rule="evenodd" d="M24.1876 15.7837C21.985 15.7438 19.8971 16.7823 18.5724 18.5767L16.983 20.7298C16.8074 20.9677 16.4758 21.0154 16.2425 20.8364C16.0091 20.6573 15.9623 20.3193 16.1379 20.0814L17.7273 17.9284C19.2558 15.8579 21.6649 14.6596 24.2064 14.7056L32.3288 14.8528C32.6208 14.8581 32.8533 15.1037 32.8481 15.4014C32.8429 15.6991 32.602 15.9362 32.31 15.9309L24.1876 15.7837Z" fill="white"/>
<path fill-rule="evenodd" clip-rule="evenodd" d="M24.1876 20.3502C21.985 20.3123 19.8971 21.2963 18.5724 22.9962L16.983 25.036C16.8074 25.2613 16.4758 25.3065 16.2425 25.1369C16.0091 24.9673 15.9623 24.6471 16.1379 24.4217L17.7273 22.382C19.2558 20.4205 21.6649 19.2852 24.2064 19.3289L32.3288 19.4683C32.6208 19.4733 32.8533 19.706 32.8481 19.988C32.8429 20.2701 32.602 20.4946 32.31 20.4896L24.1876 20.3502Z" fill="white"/>
<path fill-rule="evenodd" clip-rule="evenodd" d="M24.0322 24.6842C21.8945 24.6842 19.881 25.679 18.5955 27.3702L16.9733 29.5046C16.7994 29.7333 16.4713 29.7792 16.2403 29.6071C16.0094 29.435 15.963 29.1101 16.1368 28.8814L17.7591 26.747C19.2423 24.7955 21.5656 23.6477 24.0322 23.6477H31.9956C32.2846 23.6477 32.519 23.8797 32.519 24.166C32.519 24.4522 32.2846 24.6842 31.9956 24.6842H24.0322Z" fill="white"/>
<path fill-rule="evenodd" clip-rule="evenodd" d="M25.9953 28.0541C24.1117 28.0541 22.3701 29.0509 21.4228 30.6712L20.5142 30.1451C21.6497 28.2027 23.7373 27.0078 25.9953 27.0078H32.3224C32.6127 27.0078 32.848 27.242 32.848 27.5309C32.848 27.8199 32.6127 28.0541 32.3224 28.0541H25.9953Z" fill="white"/>
<path fill-rule="evenodd" clip-rule="evenodd" d="M9.06873 7.9519C11.2912 7.91198 13.398 8.95054 14.7346 10.745L16.3384 12.898C16.5156 13.1359 16.8501 13.1836 17.0856 13.0046C17.321 12.8256 17.3683 12.4876 17.1911 12.2497L15.5873 10.0966C14.045 8.02612 11.6141 6.82778 9.04976 6.87384L0.853951 7.02105C0.559298 7.02634 0.324681 7.27196 0.32992 7.56966C0.335158 7.86736 0.578266 8.1044 0.872921 8.09911L9.06873 7.9519Z" fill="white"/>
<path fill-rule="evenodd" clip-rule="evenodd" d="M9.06873 11.589C11.2912 11.5501 13.398 12.5634 14.7346 14.3142L16.3384 16.415C16.5156 16.6471 16.8501 16.6937 17.0856 16.519C17.321 16.3443 17.3683 16.0145 17.1911 15.7824L15.5873 13.6816C14.045 11.6614 11.6141 10.4922 9.04976 10.5371L0.853951 10.6808C0.559298 10.6859 0.324681 10.9256 0.32992 11.2161C0.335158 11.5065 0.578266 11.7378 0.872921 11.7326L9.06873 11.589Z" fill="white"/>
<path fill-rule="evenodd" clip-rule="evenodd" d="M9.06873 15.7837C11.2912 15.7438 13.398 16.7823 14.7346 18.5767L16.3384 20.7298C16.5156 20.9677 16.8501 21.0154 17.0856 20.8364C17.321 20.6573 17.3683 20.3193 17.1911 20.0814L15.5873 17.9284C14.045 15.8579 11.6141 14.6596 9.04976 14.7056L0.853951 14.8528C0.559298 14.8581 0.324681 15.1037 0.32992 15.4014C0.335158 15.6991 0.578266 15.9362 0.872921 15.9309L9.06873 15.7837Z" fill="white"/>
<path fill-rule="evenodd" clip-rule="evenodd" d="M9.06873 20.3502C11.2912 20.3123 13.398 21.2963 14.7346 22.9962L16.3384 25.036C16.5156 25.2613 16.8501 25.3065 17.0856 25.1369C17.321 24.9673 17.3683 24.6471 17.1911 24.4217L15.5873 22.382C14.045 20.4205 11.6141 19.2852 9.04976 19.3289L0.853951 19.4683C0.559298 19.4733 0.324681 19.706 0.32992 19.988C0.335158 20.2701 0.578266 20.4946 0.872921 20.4896L9.06873 20.3502Z" fill="white"/>
<path fill-rule="evenodd" clip-rule="evenodd" d="M9.19291 24.6842C11.3587 24.6842 13.3985 25.679 14.7008 27.3702L16.3444 29.5046C16.5205 29.7333 16.8529 29.7792 17.0869 29.6071C17.3209 29.435 17.3678 29.11 17.1917 28.8814L15.5482 26.747C14.0455 24.7955 11.6918 23.6477 9.19291 23.6477H0.8601C0.567242 23.6477 0.329834 23.8797 0.329834 24.166C0.329834 24.4522 0.567242 24.6842 0.8601 24.6842H9.19291Z" fill="white"/>
<path fill-rule="evenodd" clip-rule="evenodd" d="M7.18181 28.0541C9.06545 28.0541 10.807 29.0509 11.7542 30.6712L12.6629 30.1451C11.5274 28.2027 9.43978 27.0078 7.18181 27.0078H0.854745C0.564441 27.0078 0.329102 27.242 0.329102 27.5309C0.329102 27.8199 0.564441 28.0541 0.854745 28.0541H7.18181Z" fill="white"/>
<path fill-rule="evenodd" clip-rule="evenodd" d="M33 3.51172H23.3635C19.3142 3.51172 16.0315 6.79981 16.0315 10.8559V30.9999H31.4288C32.2966 30.9999 33 30.2953 33 29.4261V3.51172ZM31.9526 4.56089V29.4261C31.9526 29.7158 31.7181 29.9507 31.4288 29.9507H17.0789V10.8559C17.0789 7.37925 19.8926 4.56089 23.3635 4.56089H31.9526Z" fill="white"/>
<path fill-rule="evenodd" clip-rule="evenodd" d="M0 3.51172H9.82343C13.9514 3.51172 17.2978 6.79981 17.2978 10.8559V30.9999H1.60165C0.717081 30.9999 0 30.2953 0 29.4261V3.51172ZM1.06776 4.56089V29.4261C1.06776 29.7158 1.30679 29.9507 1.60165 29.9507H16.23V10.8559C16.23 7.37925 13.3617 4.56089 9.82343 4.56089H1.06776Z" fill="white"/>
<path fill-rule="evenodd" clip-rule="evenodd" d="M19.8507 2.43976C19.1514 3.64649 17.8259 5.18572 16.8349 6.22454C16.7076 6.35798 16.5168 6.41762 16.3322 6.38176C16.1475 6.34589 15.9959 6.21975 15.9326 6.04929C15.6423 5.2684 15.4024 4.03706 15.6575 2.87231C15.7866 2.28255 16.0462 1.69519 16.5056 1.19867C16.9679 0.699045 17.6087 0.317251 18.4546 0.108259C18.8597 0.00817599 19.2356 -0.0342095 19.5541 0.0316627C19.9145 0.106205 20.2028 0.32461 20.3139 0.677968C20.4071 0.974814 20.3491 1.29186 20.2638 1.55635C20.174 1.83492 20.0269 2.13564 19.8507 2.43976ZM19.2853 1.0353C19.1924 1.02687 19.0163 1.03586 18.7223 1.10851C18.0633 1.27132 17.6159 1.55309 17.3089 1.88486C16.9991 2.21973 16.8086 2.6316 16.7093 3.08495C16.5844 3.65542 16.6097 4.26765 16.7057 4.80909C17.5343 3.88464 18.4133 2.79725 18.9116 1.93734C19.069 1.66568 19.1778 1.43451 19.2371 1.25075C19.2664 1.1597 19.2804 1.09001 19.285 1.03968L19.2853 1.0353Z" fill="white"/>
</g>
<defs>
<clipPath id="clip0_1001_2">
<rect width="33" height="31" fill="white"/>
</clipPath>
</defs>
</svg>
