<svg width="317" height="77" viewBox="0 0 317 77" fill="none" xmlns="http://www.w3.org/2000/svg">
<path fill-rule="evenodd" clip-rule="evenodd" d="M58.804 19.5736C53.4492 19.4753 48.3731 22.032 45.1526 26.4494L41.2885 31.7498C40.8615 32.3354 40.0555 32.4529 39.4882 32.0122C38.9208 31.5714 38.807 30.7393 39.234 30.1537L43.0981 24.8533C46.814 19.7563 52.6711 16.8063 58.8497 16.9197L78.5966 17.2821C79.3065 17.2951 79.8718 17.8997 79.8592 18.6326C79.8465 19.3655 79.2608 19.949 78.5509 19.936L58.804 19.5736Z" fill="#231F20"/>
<path fill-rule="evenodd" clip-rule="evenodd" d="M58.804 28.53C53.4492 28.4342 48.3731 30.9288 45.1526 35.2389L41.2885 40.4104C40.8615 40.9819 40.0555 41.0965 39.4882 40.6664C38.9208 40.2364 38.807 39.4245 39.234 38.8531L43.0981 33.6815C46.814 28.7083 52.6711 25.8299 58.8497 25.9406L78.5966 26.2942C79.3065 26.3069 79.8718 26.8969 79.8592 27.6119C79.8465 28.327 79.2608 28.8963 78.5509 28.8836L58.804 28.53Z" fill="#231F20"/>
<path fill-rule="evenodd" clip-rule="evenodd" d="M58.804 38.8558C53.4492 38.7575 48.3731 41.3142 45.1526 45.7317L41.2885 51.032C40.8615 51.6177 40.0555 51.7351 39.4882 51.2944C38.9208 50.8536 38.807 50.0216 39.234 49.4359L43.0981 44.1356C46.814 39.0385 52.6711 36.0885 58.8497 36.2019L78.5966 36.5643C79.3065 36.5773 79.8718 37.182 79.8592 37.9148C79.8465 38.6477 79.2608 39.2312 78.5509 39.2182L58.804 38.8558Z" fill="#231F20"/>
<path fill-rule="evenodd" clip-rule="evenodd" d="M58.804 50.0973C53.4492 50.0042 48.3731 52.4264 45.1526 56.6113L41.2885 61.6326C40.8615 62.1875 40.0555 62.2988 39.4882 61.8812C38.9208 61.4636 38.807 60.6754 39.234 60.1205L43.0981 55.0992C46.814 50.2704 52.6711 47.4756 58.8497 47.5831L78.5966 47.9264C79.3065 47.9387 79.8718 48.5116 79.8592 49.2059C79.8465 49.9001 79.2608 50.453 78.5509 50.4406L58.804 50.0973Z" fill="#231F20"/>
<path fill-rule="evenodd" clip-rule="evenodd" d="M58.4263 60.767C53.2291 60.767 48.334 63.2159 45.2088 67.3793L41.2648 72.6337C40.8422 73.1967 40.0444 73.3096 39.4829 72.8859C38.9214 72.4622 38.8088 71.6624 39.2314 71.0994L43.1754 65.845C46.7813 61.041 52.4295 58.2153 58.4263 58.2153H77.7865C78.4892 58.2153 79.059 58.7865 79.059 59.4911C79.059 60.1958 78.4892 60.767 77.7865 60.767H58.4263Z" fill="#231F20"/>
<path fill-rule="evenodd" clip-rule="evenodd" d="M63.1988 69.0625C58.6193 69.0625 54.3853 71.5164 52.0824 75.5053L49.8732 74.21C52.6339 69.4284 57.7093 66.4868 63.1988 66.4868H78.5809C79.2867 66.4868 79.8588 67.0634 79.8588 67.7746C79.8588 68.4859 79.2867 69.0625 78.5809 69.0625H63.1988Z" fill="#231F20"/>
<path fill-rule="evenodd" clip-rule="evenodd" d="M22.0475 19.576C27.4507 19.4778 32.5727 22.0345 35.8222 26.4519L39.7212 31.7522C40.1521 32.3379 40.9654 32.4553 41.5378 32.0146C42.1103 31.5738 42.2251 30.7418 41.7943 30.1561L37.8953 24.8558C34.1458 19.7588 28.2358 16.8087 22.0014 16.9221L2.07606 17.2845C1.35971 17.2975 0.789322 17.9022 0.802059 18.635C0.814796 19.3679 1.40583 19.9514 2.12218 19.9384L22.0475 19.576Z" fill="#231F20"/>
<path fill-rule="evenodd" clip-rule="evenodd" d="M22.0475 28.53C27.4507 28.4342 32.5727 30.9288 35.8222 35.2389L39.7212 40.4104C40.1521 40.9819 40.9654 41.0965 41.5378 40.6664C42.1103 40.2364 42.2251 39.4245 41.7943 38.8531L37.8953 33.6815C34.1458 28.7083 28.2358 25.8299 22.0014 25.9406L2.07606 26.2942C1.35971 26.3069 0.789322 26.8969 0.802059 27.6119C0.814796 28.327 1.40583 28.8963 2.12218 28.8836L22.0475 28.53Z" fill="#231F20"/>
<path fill-rule="evenodd" clip-rule="evenodd" d="M22.0475 38.8558C27.4507 38.7575 32.5727 41.3142 35.8222 45.7317L39.7212 51.032C40.1521 51.6177 40.9654 51.7351 41.5378 51.2944C42.1103 50.8536 42.2251 50.0216 41.7943 49.4359L37.8953 44.1356C34.1458 39.0385 28.2358 36.0885 22.0014 36.2019L2.07606 36.5643C1.35971 36.5773 0.789322 37.182 0.802059 37.9148C0.814796 38.6477 1.40583 39.2312 2.12218 39.2182L22.0475 38.8558Z" fill="#231F20"/>
<path fill-rule="evenodd" clip-rule="evenodd" d="M22.0475 50.0973C27.4507 50.0042 32.5727 52.4264 35.8222 56.6113L39.7212 61.6326C40.1521 62.1875 40.9654 62.2988 41.5378 61.8812C42.1103 61.4636 42.2251 60.6754 41.7943 60.1205L37.8953 55.0992C34.1458 50.2704 28.2358 47.4756 22.0014 47.5831L2.07606 47.9264C1.35971 47.9387 0.789322 48.5116 0.802059 49.2059C0.814796 49.9001 1.40583 50.453 2.12218 50.4406L22.0475 50.0973Z" fill="#231F20"/>
<path fill-rule="evenodd" clip-rule="evenodd" d="M22.3494 60.767C27.6148 60.767 32.574 63.2158 35.7402 67.3793L39.7358 72.6337C40.164 73.1967 40.9722 73.3096 41.5411 72.8859C42.11 72.4622 42.2241 71.6624 41.7959 71.0994L37.8003 65.845C34.147 61.041 28.4248 58.2153 22.3494 58.2153H2.09102C1.37903 58.2153 0.801857 58.7865 0.801857 59.4911C0.801857 60.1958 1.37903 60.767 2.09102 60.767H22.3494Z" fill="#231F20"/>
<path fill-rule="evenodd" clip-rule="evenodd" d="M17.46 69.0625C22.0394 69.0625 26.2734 71.5164 28.5764 75.5053L30.7856 74.21C28.0249 69.4284 22.9495 66.4868 17.46 66.4868H2.07788C1.37211 66.4868 0.799961 67.0634 0.799961 67.7746C0.799961 68.4859 1.37211 69.0625 2.07788 69.0625H17.46Z" fill="#231F20"/>
<path fill-rule="evenodd" clip-rule="evenodd" d="M80.2284 8.64502H56.8006C46.9558 8.64502 38.9751 16.7395 38.9751 26.7246V76.3145H76.4086C78.5182 76.3145 80.2284 74.5799 80.2284 72.4403V8.64502ZM77.6819 11.2278V72.4403C77.6819 73.1535 77.1118 73.7317 76.4086 73.7317H41.5216V26.7246C41.5216 18.166 48.3622 11.2278 56.8006 11.2278H77.6819Z" fill="#231F20"/>
<path fill-rule="evenodd" clip-rule="evenodd" d="M0 8.64502H23.8824C33.9181 8.64502 42.0537 16.7395 42.0537 26.7246V76.3145H3.89386C1.74334 76.3145 0 74.5799 0 72.4403V8.64502ZM2.59591 11.2278V72.4403C2.59591 73.1535 3.17702 73.7317 3.89386 73.7317H39.4578V26.7246C39.4578 18.166 32.4844 11.2278 23.8824 11.2278H2.59591Z" fill="#231F20"/>
<path fill-rule="evenodd" clip-rule="evenodd" d="M48.2602 6.00613C46.5602 8.97682 43.3377 12.766 40.9282 15.3234C40.6187 15.6519 40.1551 15.7987 39.7062 15.7104C39.2573 15.6221 38.8886 15.3116 38.7346 14.8919C38.0289 12.9696 37.4458 9.9383 38.0658 7.07097C38.3798 5.61911 39.0109 4.17318 40.1277 2.95086C41.2516 1.72089 42.8096 0.780997 44.8661 0.266509C45.8509 0.0201273 46.7649 -0.0842158 47.5391 0.0779462C48.4152 0.261452 49.1163 0.799116 49.3862 1.669C49.613 2.39977 49.4718 3.18026 49.2645 3.83138C49.0462 4.51716 48.6887 5.25745 48.2602 6.00613ZM46.8857 2.54866C46.6598 2.52791 46.2317 2.55004 45.5168 2.72889C43.9148 3.12969 42.827 3.82335 42.0808 4.64008C41.3275 5.46446 40.8644 6.47838 40.623 7.59444C40.3193 8.9988 40.3808 10.506 40.6142 11.8389C42.6287 9.56309 44.7656 6.88618 45.9771 4.76927C46.3598 4.10052 46.6243 3.53143 46.7684 3.07905C46.8397 2.85492 46.8737 2.68334 46.8848 2.55944C46.8851 2.55578 46.8854 2.55218 46.8857 2.54866Z" fill="#231F20"/>
<path d="M102.812 35.1901C101.553 35.1901 100.383 34.9822 99.3011 34.5664C98.2358 34.1352 97.2915 33.5423 96.4683 32.7877C95.6612 32.0178 95.0316 31.1323 94.5797 30.1313C94.1439 29.1149 93.9259 28.0215 93.9259 26.8512C93.9259 25.6808 94.1439 24.5951 94.5797 23.5941C95.0316 22.5777 95.6612 21.6923 96.4683 20.9377C97.2915 20.1677 98.2438 19.5748 99.3253 19.159C100.407 18.7278 101.569 18.5122 102.812 18.5122C103.7 18.5122 104.563 18.6277 105.403 18.8587C106.258 19.0743 107.041 19.39 107.751 19.8058C108.478 20.2216 109.107 20.7221 109.64 21.3073L107.945 22.9704C107.315 22.2466 106.549 21.7 105.645 21.3304C104.741 20.9454 103.797 20.7529 102.812 20.7529C101.908 20.7529 101.069 20.9069 100.294 21.2149C99.5352 21.5229 98.8734 21.954 98.3084 22.5084C97.7435 23.0474 97.2996 23.6865 96.9767 24.4257C96.67 25.1649 96.5167 25.9734 96.5167 26.8512C96.5167 27.7135 96.67 28.5143 96.9767 29.2535C97.2996 29.9927 97.7515 30.6395 98.3326 31.1939C98.9137 31.7483 99.5917 32.1795 100.366 32.4875C101.141 32.7954 101.981 32.9494 102.885 32.9494C103.869 32.9494 104.797 32.7646 105.669 32.3951C106.557 32.0101 107.307 31.4711 107.921 30.7781L109.591 32.3951C109.026 32.9648 108.381 33.4653 107.654 33.8965C106.944 34.3123 106.169 34.6357 105.33 34.8667C104.507 35.0823 103.667 35.1901 102.812 35.1901Z" fill="#231F20"/>
<path d="M111.788 34.936V18.7663L114.209 18.2581V24.3795C115.162 23.4247 116.397 22.9473 117.914 22.9473C118.866 22.9473 119.698 23.1398 120.408 23.5248C121.134 23.9098 121.699 24.4488 122.103 25.1418C122.522 25.8348 122.732 26.6356 122.732 27.5441V34.936H120.311V27.9368C120.311 27.0129 120.037 26.2891 119.488 25.7655C118.939 25.2265 118.188 24.957 117.236 24.957C116.59 24.957 116.009 25.0879 115.493 25.3497C114.976 25.6115 114.548 25.9888 114.209 26.4816V34.936H111.788Z" fill="#231F20"/>
<path d="M130.178 35.167C129.225 35.167 128.386 34.9745 127.659 34.5895C126.933 34.2045 126.368 33.6655 125.965 32.9725C125.561 32.2642 125.359 31.4557 125.359 30.5471V23.1783H127.756V30.1544C127.756 31.0784 128.031 31.8099 128.58 32.3489C129.145 32.8878 129.895 33.1573 130.831 33.1573C131.493 33.1573 132.082 33.0264 132.599 32.7646C133.115 32.4875 133.535 32.1025 133.858 31.6097V23.1783H136.279V34.936H133.858V33.7348C132.906 34.6896 131.679 35.167 130.178 35.167Z" fill="#231F20"/>
<path d="M139.146 34.936V23.1783H141.567V24.6798C141.954 24.1254 142.43 23.6942 142.995 23.3862C143.576 23.0628 144.23 22.9011 144.957 22.9011C145.457 22.9165 145.869 22.9858 146.191 23.109V25.188C145.965 25.0956 145.731 25.034 145.489 25.0032C145.247 24.957 145.005 24.9339 144.763 24.9339C144.053 24.9339 143.423 25.1187 142.874 25.4883C142.325 25.8425 141.89 26.3661 141.567 27.0591V34.936H139.146Z" fill="#231F20"/>
<path d="M153.208 35.1439C152.03 35.1439 150.956 34.8744 149.988 34.3354C149.019 33.7964 148.253 33.0649 147.688 32.141C147.139 31.217 146.864 30.1852 146.864 29.0456C146.864 27.906 147.147 26.882 147.712 25.9734C148.277 25.0494 149.035 24.3179 149.988 23.7789C150.956 23.2245 152.03 22.9473 153.208 22.9473C154.144 22.9473 155.04 23.1167 155.896 23.4555C156.767 23.7943 157.518 24.2717 158.147 24.8877L156.646 26.4816C156.178 25.9888 155.654 25.6192 155.072 25.3728C154.491 25.1264 153.886 25.0032 153.256 25.0032C152.514 25.0032 151.836 25.1803 151.223 25.5345C150.625 25.8887 150.149 26.3738 149.794 26.9898C149.439 27.6057 149.261 28.291 149.261 29.0456C149.261 29.8002 149.439 30.4855 149.794 31.1015C150.149 31.7175 150.633 32.2103 151.247 32.5798C151.86 32.934 152.546 33.1111 153.305 33.1111C153.934 33.1111 154.524 32.9956 155.072 32.7646C155.621 32.5183 156.138 32.1641 156.622 31.7021L158.099 33.1804C157.453 33.8118 156.703 34.2969 155.847 34.6357C155.008 34.9745 154.128 35.1439 153.208 35.1439Z" fill="#231F20"/>
<path d="M160.048 34.936V18.7663L162.469 18.2581V24.3795C163.421 23.4247 164.656 22.9473 166.174 22.9473C167.126 22.9473 167.957 23.1398 168.667 23.5248C169.394 23.9098 169.959 24.4488 170.362 25.1418C170.782 25.8348 170.992 26.6356 170.992 27.5441V34.936H168.571V27.9368C168.571 27.0129 168.296 26.2891 167.747 25.7655C167.199 25.2265 166.448 24.957 165.496 24.957C164.85 24.957 164.269 25.0879 163.752 25.3497C163.236 25.6115 162.808 25.9888 162.469 26.4816V34.936H160.048Z" fill="#231F20"/>
<path d="M187.223 35.1901C185.996 35.1901 184.85 34.9822 183.785 34.5664C182.72 34.1352 181.775 33.5423 180.952 32.7877C180.145 32.0178 179.515 31.1323 179.063 30.1313C178.628 29.1149 178.41 28.0215 178.41 26.8512C178.41 25.6808 178.628 24.5951 179.063 23.5941C179.515 22.5777 180.145 21.6923 180.952 20.9377C181.775 20.1677 182.72 19.5748 183.785 19.159C184.85 18.7278 185.996 18.5122 187.223 18.5122C188.45 18.5122 189.596 18.7278 190.661 19.159C191.743 19.5748 192.687 20.1677 193.494 20.9377C194.301 21.6923 194.931 22.5777 195.383 23.5941C195.835 24.5951 196.061 25.6808 196.061 26.8512C196.061 28.0215 195.835 29.1149 195.383 30.1313C194.931 31.1323 194.301 32.0178 193.494 32.7877C192.687 33.5423 191.743 34.1352 190.661 34.5664C189.596 34.9822 188.45 35.1901 187.223 35.1901ZM187.247 32.9494C188.119 32.9494 188.926 32.7954 189.669 32.4875C190.427 32.1795 191.089 31.756 191.654 31.217C192.219 30.6626 192.663 30.0158 192.986 29.2766C193.309 28.522 193.47 27.7135 193.47 26.8512C193.47 25.9734 193.309 25.1649 192.986 24.4257C192.663 23.6865 192.219 23.0474 191.654 22.5084C191.089 21.954 190.427 21.5229 189.669 21.2149C188.926 20.9069 188.119 20.7529 187.247 20.7529C186.36 20.7529 185.536 20.9069 184.778 21.2149C184.019 21.5229 183.357 21.954 182.792 22.5084C182.227 23.0474 181.783 23.6865 181.461 24.4257C181.154 25.1649 181 25.9657 181 26.8281C181 27.7058 181.154 28.522 181.461 29.2766C181.783 30.0158 182.227 30.6626 182.792 31.217C183.357 31.756 184.019 32.1795 184.778 32.4875C185.536 32.7954 186.36 32.9494 187.247 32.9494Z" fill="#231F20"/>
<path d="M200.287 34.936V25.1187H197.43V23.1783H200.287V21.3997C200.287 20.1677 200.643 19.2283 201.353 18.5815C202.079 17.9347 203.112 17.6113 204.452 17.6113C204.791 17.6113 205.106 17.6344 205.396 17.6806C205.703 17.7114 205.977 17.7653 206.22 17.8423V19.8289C205.929 19.7519 205.671 19.698 205.445 19.6672C205.219 19.621 204.969 19.5979 204.694 19.5979C204.016 19.5979 203.508 19.7519 203.169 20.0599C202.846 20.3525 202.684 20.8222 202.684 21.469V23.1783H206.22V25.1187H202.684V34.936H200.287Z" fill="#231F20"/>
<path d="M221.581 35.1901C220.322 35.1901 219.152 34.9822 218.07 34.5664C217.005 34.1352 216.061 33.5423 215.237 32.7877C214.43 32.0178 213.801 31.1323 213.349 30.1313C212.913 29.1149 212.695 28.0215 212.695 26.8512C212.695 25.6808 212.913 24.5951 213.349 23.5941C213.801 22.5777 214.43 21.6923 215.237 20.9377C216.061 20.1677 217.013 19.5748 218.094 19.159C219.176 18.7278 220.338 18.5122 221.581 18.5122C222.469 18.5122 223.332 18.6277 224.172 18.8587C225.027 19.0743 225.81 19.39 226.52 19.8058C227.247 20.2216 227.876 20.7221 228.409 21.3073L226.714 22.9704C226.085 22.2466 225.318 21.7 224.414 21.3304C223.51 20.9454 222.566 20.7529 221.581 20.7529C220.677 20.7529 219.838 20.9069 219.063 21.2149C218.304 21.5229 217.642 21.954 217.078 22.5084C216.513 23.0474 216.069 23.6865 215.746 24.4257C215.439 25.1649 215.286 25.9734 215.286 26.8512C215.286 27.7135 215.439 28.5143 215.746 29.2535C216.069 29.9927 216.521 30.6395 217.102 31.1939C217.683 31.7483 218.361 32.1795 219.136 32.4875C219.91 32.7954 220.75 32.9494 221.654 32.9494C222.638 32.9494 223.566 32.7646 224.438 32.3951C225.326 32.0101 226.077 31.4711 226.69 30.7781L228.361 32.3951C227.796 32.9648 227.15 33.4653 226.424 33.8965C225.713 34.3123 224.939 34.6357 224.099 34.8667C223.276 35.0823 222.437 35.1901 221.581 35.1901Z" fill="#231F20"/>
<path d="M230.557 34.936V18.7663L232.979 18.2581V24.3795C233.931 23.4247 235.166 22.9473 236.683 22.9473C237.635 22.9473 238.467 23.1398 239.177 23.5248C239.903 23.9098 240.468 24.4488 240.872 25.1418C241.292 25.8348 241.501 26.6356 241.501 27.5441V34.936H239.08V27.9368C239.08 27.0129 238.806 26.2891 238.257 25.7655C237.708 25.2265 236.957 24.957 236.005 24.957C235.359 24.957 234.778 25.0879 234.262 25.3497C233.745 25.6115 233.318 25.9888 232.979 26.4816V34.936H230.557Z" fill="#231F20"/>
<path d="M244.295 34.936V23.1783H246.716V24.6798C247.104 24.1254 247.58 23.6942 248.145 23.3862C248.726 23.0628 249.38 22.9011 250.106 22.9011C250.606 22.9165 251.018 22.9858 251.341 23.109V25.188C251.115 25.0956 250.881 25.034 250.639 25.0032C250.397 24.957 250.155 24.9339 249.912 24.9339C249.202 24.9339 248.573 25.1187 248.024 25.4883C247.475 25.8425 247.039 26.3661 246.716 27.0591V34.936H244.295Z" fill="#231F20"/>
<path d="M253.28 34.936V23.1783H255.701V34.936H253.28ZM254.491 21.2842C254.087 21.2842 253.74 21.1456 253.45 20.8684C253.159 20.5758 253.014 20.237 253.014 19.852C253.014 19.4516 253.159 19.1205 253.45 18.8587C253.74 18.5815 254.087 18.4429 254.491 18.4429C254.91 18.4429 255.266 18.5815 255.556 18.8587C255.847 19.1205 255.992 19.4516 255.992 19.852C255.992 20.237 255.847 20.5758 255.556 20.8684C255.266 21.1456 254.91 21.2842 254.491 21.2842Z" fill="#231F20"/>
<path d="M262.79 35.167C261.725 35.167 260.724 35.0207 259.788 34.7281C258.868 34.4201 258.069 33.9889 257.391 33.4345L258.723 31.91C259.352 32.3874 259.998 32.7569 260.66 33.0187C261.337 33.2651 262.023 33.3883 262.718 33.3883C263.589 33.3883 264.299 33.2266 264.848 32.9032C265.397 32.5798 265.672 32.1564 265.672 31.6328C265.672 31.2016 265.51 30.8628 265.187 30.6164C264.864 30.37 264.364 30.2006 263.686 30.1082L261.459 29.8079C260.232 29.6385 259.312 29.2766 258.698 28.7222C258.085 28.1678 257.778 27.4286 257.778 26.5047C257.778 25.7963 257.98 25.1803 258.384 24.6567C258.787 24.1177 259.352 23.7019 260.078 23.4093C260.805 23.1013 261.652 22.9473 262.621 22.9473C263.509 22.9473 264.364 23.0705 265.187 23.3169C266.011 23.5633 266.801 23.9483 267.56 24.4719L266.325 25.9965C265.647 25.5653 264.985 25.2496 264.34 25.0494C263.71 24.8492 263.073 24.7491 262.427 24.7491C261.685 24.7491 261.087 24.9031 260.635 25.2111C260.183 25.5037 259.957 25.8887 259.957 26.3661C259.957 26.7973 260.111 27.1361 260.417 27.3824C260.74 27.6134 261.265 27.7751 261.991 27.8675L264.219 28.1678C265.446 28.3372 266.374 28.6991 267.003 29.2535C267.633 29.7925 267.948 30.524 267.948 31.448C267.948 32.1564 267.722 32.7954 267.27 33.3652C266.818 33.9196 266.204 34.3585 265.429 34.6819C264.655 35.0053 263.775 35.167 262.79 35.167Z" fill="#231F20"/>
<path d="M274.85 35.1439C273.655 35.1439 272.743 34.8821 272.114 34.3585C271.484 33.8195 271.17 33.0418 271.17 32.0255V25.1187H268.555V23.1783H271.17V20.1754L273.567 19.621V23.1783H277.199V25.1187H273.567V31.4942C273.567 32.0948 273.704 32.526 273.978 32.7877C274.269 33.0341 274.737 33.1573 275.383 33.1573C275.722 33.1573 276.02 33.1342 276.278 33.088C276.553 33.0418 276.843 32.9725 277.15 32.8801V34.8205C276.827 34.9283 276.448 35.0053 276.012 35.0515C275.592 35.1131 275.205 35.1439 274.85 35.1439Z" fill="#231F20"/>
<path d="M101.553 61.8188C100.084 61.8188 98.8088 61.5262 97.7273 60.941C96.6458 60.3558 95.8145 59.5319 95.2334 58.4693C94.6523 57.3914 94.3618 56.1209 94.3618 54.6579V45.395H96.9041V54.6579C96.9041 55.6589 97.0897 56.529 97.461 57.2682C97.8484 58.0073 98.3891 58.5771 99.0832 58.9775C99.7934 59.3779 100.617 59.5781 101.553 59.5781C102.521 59.5781 103.353 59.3779 104.047 58.9775C104.741 58.5771 105.274 58.0073 105.645 57.2682C106.032 56.529 106.226 55.6589 106.226 54.6579V45.395H108.768V54.6579C108.768 56.1209 108.47 57.3914 107.872 58.4693C107.291 59.5319 106.46 60.3558 105.378 60.941C104.297 61.5262 103.022 61.8188 101.553 61.8188Z" fill="#231F20"/>
<path d="M111.623 61.5647V49.807H114.044V51.0082C114.996 50.0534 116.231 49.576 117.748 49.576C118.701 49.576 119.532 49.7685 120.242 50.1535C120.969 50.5385 121.534 51.0775 121.937 51.7705C122.357 52.4634 122.567 53.2642 122.567 54.1728V61.5647H120.145V54.5655C120.145 53.6415 119.871 52.9177 119.322 52.3941C118.79 51.8552 118.039 51.5857 117.07 51.5857C116.425 51.5857 115.844 51.7166 115.327 51.9784C114.811 52.2401 114.383 52.6174 114.044 53.1102V61.5647H111.623Z" fill="#231F20"/>
<path d="M125.36 61.5647V49.807H127.782V61.5647H125.36ZM126.571 47.9128C126.168 47.9128 125.82 47.7742 125.53 47.497C125.239 47.2044 125.094 46.8656 125.094 46.4807C125.094 46.0803 125.239 45.7492 125.53 45.4874C125.82 45.2102 126.168 45.0716 126.571 45.0716C126.991 45.0716 127.346 45.2102 127.636 45.4874C127.927 45.7492 128.072 46.0803 128.072 46.4807C128.072 46.8656 127.927 47.2044 127.636 47.497C127.346 47.7742 126.991 47.9128 126.571 47.9128Z" fill="#231F20"/>
<path d="M134.604 61.5647L129.277 49.807H131.941L135.791 58.6079L139.64 49.807H142.207L136.929 61.5647H134.604Z" fill="#231F20"/>
<path d="M149.262 61.7726C148.052 61.7726 146.954 61.5031 145.969 60.9641C145.001 60.4251 144.226 59.6936 143.645 58.7696C143.08 57.8456 142.797 56.8139 142.797 55.6743C142.797 54.5501 143.072 53.5337 143.621 52.6251C144.169 51.7012 144.912 50.9697 145.848 50.4307C146.784 49.8763 147.826 49.5991 148.972 49.5991C150.118 49.5991 151.135 49.8763 152.022 50.4307C152.91 50.9697 153.612 51.7089 154.129 52.6482C154.662 53.5722 154.928 54.6194 154.928 55.7898V56.4366H145.219C145.348 57.0834 145.598 57.6608 145.969 58.169C146.357 58.6772 146.841 59.0776 147.422 59.3702C148.019 59.6628 148.665 59.8091 149.359 59.8091C149.956 59.8091 150.529 59.7244 151.078 59.555C151.643 59.3702 152.111 59.1084 152.482 58.7696L154.032 60.2249C153.306 60.7485 152.555 61.1412 151.78 61.403C151.022 61.6494 150.182 61.7726 149.262 61.7726ZM145.243 54.7041H152.531C152.434 54.0881 152.208 53.5491 151.853 53.0871C151.514 52.6097 151.086 52.2401 150.57 51.9784C150.069 51.7012 149.52 51.5626 148.923 51.5626C148.31 51.5626 147.745 51.6935 147.228 51.9553C146.712 52.217 146.276 52.5866 145.921 53.064C145.582 53.526 145.356 54.0727 145.243 54.7041Z" fill="#231F20"/>
<path d="M157.234 61.5647V49.807H159.655V51.3085C160.043 50.7541 160.519 50.3229 161.084 50.0149C161.665 49.6915 162.319 49.5298 163.045 49.5298C163.545 49.5452 163.957 49.6145 164.28 49.7377V51.8167C164.054 51.7243 163.82 51.6627 163.578 51.6319C163.336 51.5857 163.093 51.5626 162.851 51.5626C162.141 51.5626 161.512 51.7474 160.963 52.117C160.414 52.4711 159.978 52.9947 159.655 53.6877V61.5647H157.234Z" fill="#231F20"/>
<path d="M170.456 61.7957C169.391 61.7957 168.39 61.6494 167.454 61.3568C166.534 61.0488 165.735 60.6176 165.057 60.0632L166.389 58.5386C167.018 59.016 167.664 59.3856 168.326 59.6474C169.004 59.8938 169.69 60.017 170.384 60.017C171.255 60.017 171.966 59.8553 172.514 59.5319C173.063 59.2085 173.338 58.785 173.338 58.2614C173.338 57.8302 173.176 57.4914 172.853 57.2451C172.53 56.9987 172.03 56.8293 171.352 56.7369L169.125 56.4366C167.898 56.2672 166.978 55.9053 166.364 55.3509C165.751 54.7965 165.444 54.0573 165.444 53.1333C165.444 52.4249 165.646 51.809 166.05 51.2854C166.453 50.7464 167.018 50.3306 167.744 50.038C168.471 49.73 169.318 49.576 170.287 49.576C171.175 49.576 172.03 49.6992 172.853 49.9456C173.677 50.192 174.467 50.577 175.226 51.1006L173.991 52.6251C173.313 52.194 172.652 51.8783 172.006 51.6781C171.376 51.4779 170.739 51.3778 170.093 51.3778C169.351 51.3778 168.753 51.5318 168.301 51.8398C167.849 52.1324 167.623 52.5173 167.623 52.9947C167.623 53.4259 167.777 53.7647 168.083 54.0111C168.406 54.2421 168.931 54.4038 169.657 54.4962L171.885 54.7965C173.112 54.9659 174.04 55.3278 174.669 55.8822C175.299 56.4212 175.614 57.1527 175.614 58.0766C175.614 58.785 175.388 59.4241 174.936 59.9939C174.484 60.5483 173.87 60.9872 173.095 61.3106C172.321 61.634 171.441 61.7957 170.456 61.7957Z" fill="#231F20"/>
<path d="M177.474 61.5647V49.807H179.895V61.5647H177.474ZM178.685 47.9128C178.281 47.9128 177.934 47.7742 177.644 47.497C177.353 47.2044 177.208 46.8656 177.208 46.4807C177.208 46.0803 177.353 45.7492 177.644 45.4874C177.934 45.2102 178.281 45.0716 178.685 45.0716C179.104 45.0716 179.46 45.2102 179.75 45.4874C180.041 45.7492 180.186 46.0803 180.186 46.4807C180.186 46.8656 180.041 47.2044 179.75 47.497C179.46 47.7742 179.104 47.9128 178.685 47.9128Z" fill="#231F20"/>
<path d="M188.025 61.7726C186.831 61.7726 185.919 61.5108 185.289 60.9872C184.66 60.4482 184.345 59.6705 184.345 58.6541V51.7474H181.73V49.807H184.345V46.8041L186.742 46.2497V49.807H190.374V51.7474H186.742V58.1228C186.742 58.7234 186.879 59.1546 187.154 59.4164C187.444 59.6628 187.912 59.786 188.558 59.786C188.897 59.786 189.196 59.7629 189.454 59.7167C189.728 59.6705 190.019 59.6012 190.326 59.5088V61.4492C190.003 61.557 189.623 61.634 189.188 61.6802C188.768 61.7418 188.38 61.7726 188.025 61.7726Z" fill="#231F20"/>
<path d="M193.217 66.5311C192.959 66.5311 192.717 66.5157 192.491 66.4849C192.265 66.4695 192.079 66.4387 191.934 66.3925V64.3597C192.225 64.4213 192.58 64.4521 192.999 64.4521C194.129 64.4521 194.945 63.8746 195.445 62.7197L195.978 61.5878L191.038 49.807H193.726L197.309 58.7696L201.28 49.807H203.895L197.939 63.0199C197.551 63.8515 197.14 64.5214 196.704 65.0296C196.268 65.5532 195.768 65.9305 195.203 66.1615C194.638 66.4079 193.976 66.5311 193.217 66.5311Z" fill="#231F20"/>
<path d="M218.837 61.8188C217.61 61.8188 216.464 61.6109 215.398 61.1951C214.333 60.7639 213.389 60.171 212.565 59.4164C211.758 58.6464 211.129 57.7609 210.677 56.76C210.241 55.7436 210.023 54.6502 210.023 53.4798C210.023 52.3094 210.241 51.2238 210.677 50.2228C211.129 49.2064 211.758 48.3209 212.565 47.5663C213.389 46.7963 214.333 46.2035 215.398 45.7877C216.464 45.3565 217.61 45.1409 218.837 45.1409C220.063 45.1409 221.209 45.3565 222.275 45.7877C223.356 46.2035 224.3 46.7963 225.108 47.5663C225.915 48.3209 226.544 49.2064 226.996 50.2228C227.448 51.2238 227.674 52.3094 227.674 53.4798C227.674 54.6502 227.448 55.7436 226.996 56.76C226.544 57.7609 225.915 58.6464 225.108 59.4164C224.3 60.171 223.356 60.7639 222.275 61.1951C221.209 61.6109 220.063 61.8188 218.837 61.8188ZM218.861 59.5781C219.732 59.5781 220.539 59.4241 221.282 59.1161C222.041 58.8081 222.702 58.3846 223.267 57.8456C223.832 57.2913 224.276 56.6445 224.599 55.9053C224.922 55.1507 225.083 54.3422 225.083 53.4798C225.083 52.602 224.922 51.7936 224.599 51.0544C224.276 50.3152 223.832 49.6761 223.267 49.1371C222.702 48.5827 222.041 48.1515 221.282 47.8435C220.539 47.5355 219.732 47.3815 218.861 47.3815C217.973 47.3815 217.15 47.5355 216.391 47.8435C215.632 48.1515 214.971 48.5827 214.406 49.1371C213.841 49.6761 213.397 50.3152 213.074 51.0544C212.767 51.7936 212.614 52.5943 212.614 53.4567C212.614 54.3345 212.767 55.1507 213.074 55.9053C213.397 56.6445 213.841 57.2913 214.406 57.8456C214.971 58.3846 215.632 58.8081 216.391 59.1161C217.15 59.4241 217.973 59.5781 218.861 59.5781Z" fill="#231F20"/>
<path d="M231.901 61.5647V51.7474H229.044V49.807H231.901V48.0283C231.901 46.7963 232.256 45.857 232.966 45.2102C233.693 44.5634 234.726 44.24 236.065 44.24C236.404 44.24 236.719 44.2631 237.01 44.3093C237.316 44.3401 237.591 44.394 237.833 44.471V46.4576C237.542 46.3806 237.284 46.3267 237.058 46.2959C236.832 46.2497 236.582 46.2266 236.308 46.2266C235.63 46.2266 235.121 46.3806 234.782 46.6886C234.459 46.9811 234.298 47.4508 234.298 48.0976V49.807H237.833V51.7474H234.298V61.5647H231.901Z" fill="#231F20"/>
<path d="M245.035 61.5647V45.395H247.577V61.5647H245.035Z" fill="#231F20"/>
<path d="M250.75 61.5647V45.395L253.171 44.9561V50.9158C254.204 50.0534 255.455 49.6222 256.924 49.6222C258.087 49.6222 259.136 49.8917 260.072 50.4307C261.024 50.9697 261.775 51.6935 262.324 52.602C262.873 53.5106 263.147 54.5347 263.147 55.6743C263.147 56.8139 262.865 57.8456 262.3 58.7696C261.751 59.6782 261 60.402 260.048 60.941C259.112 61.48 258.054 61.7495 256.876 61.7495C256.198 61.7495 255.536 61.6494 254.891 61.4492C254.261 61.2336 253.68 60.9333 253.147 60.5483V61.5647H250.75ZM256.61 59.7398C257.401 59.7398 258.103 59.5627 258.716 59.2085C259.346 58.8543 259.846 58.3769 260.217 57.7763C260.589 57.1604 260.774 56.4674 260.774 55.6974C260.774 54.9274 260.589 54.2344 260.217 53.6184C259.846 53.0024 259.346 52.5173 258.716 52.1631C258.103 51.809 257.401 51.6319 256.61 51.6319C255.916 51.6319 255.27 51.7551 254.673 52.0015C254.075 52.2478 253.575 52.5943 253.171 53.0409V58.3538C253.575 58.785 254.075 59.1238 254.673 59.3702C255.286 59.6166 255.932 59.7398 256.61 59.7398Z" fill="#231F20"/>
<path d="M269.474 61.7726C268.586 61.7726 267.803 61.6263 267.125 61.3337C266.447 61.0257 265.915 60.6022 265.527 60.0632C265.14 59.5242 264.946 58.9005 264.946 58.1921C264.946 57.0834 265.39 56.2133 266.278 55.5819C267.166 54.9351 268.384 54.6117 269.934 54.6117C271.144 54.6117 272.266 54.835 273.299 55.2816V54.0342C273.299 53.1872 273.041 52.5558 272.525 52.1401C272.024 51.7243 271.282 51.5164 270.297 51.5164C269.732 51.5164 269.143 51.6011 268.53 51.7705C267.916 51.9245 267.23 52.1708 266.471 52.5096L265.576 50.7772C266.512 50.3614 267.383 50.0611 268.191 49.8763C268.998 49.6761 269.813 49.576 270.636 49.576C272.234 49.576 273.469 49.9379 274.341 50.6617C275.228 51.3855 275.672 52.4172 275.672 53.757V61.5647H273.299V60.5483C272.751 60.9641 272.161 61.2721 271.532 61.4723C270.902 61.6725 270.216 61.7726 269.474 61.7726ZM267.27 58.1459C267.27 58.7157 267.521 59.1777 268.021 59.5319C268.538 59.8707 269.207 60.0401 270.031 60.0401C270.676 60.0401 271.266 59.9554 271.798 59.786C272.347 59.6012 272.847 59.3163 273.299 58.9313V56.9448C272.831 56.683 272.339 56.4982 271.822 56.3904C271.322 56.2672 270.757 56.2056 270.128 56.2056C269.24 56.2056 268.538 56.3827 268.021 56.7369C267.521 57.0757 267.27 57.5453 267.27 58.1459Z" fill="#231F20"/>
<path d="M284.128 61.7495C282.982 61.7495 281.933 61.48 280.98 60.941C280.028 60.402 279.277 59.6782 278.728 58.7696C278.18 57.8456 277.905 56.8139 277.905 55.6743C277.905 54.5347 278.18 53.5106 278.728 52.602C279.293 51.6935 280.052 50.9697 281.004 50.4307C281.957 49.8917 283.014 49.6222 284.176 49.6222C284.854 49.6222 285.508 49.7223 286.138 49.9225C286.767 50.1227 287.348 50.4153 287.881 50.8003V45.395L290.302 44.9561V61.5647H287.905V60.4328C286.856 61.3106 285.597 61.7495 284.128 61.7495ZM284.443 59.7398C285.153 59.7398 285.799 59.6166 286.38 59.3702C286.977 59.1238 287.477 58.7696 287.881 58.3076V53.0178C287.477 52.5866 286.977 52.2478 286.38 52.0015C285.799 51.7397 285.153 51.6088 284.443 51.6088C283.668 51.6088 282.966 51.7859 282.336 52.1401C281.707 52.4942 281.206 52.9793 280.835 53.5953C280.464 54.1959 280.278 54.8812 280.278 55.6512C280.278 56.4212 280.464 57.1142 280.835 57.7301C281.206 58.3461 281.707 58.8389 282.336 59.2085C282.966 59.5627 283.668 59.7398 284.443 59.7398Z" fill="#231F20"/>
<path d="M297.068 61.7726C296.18 61.7726 295.397 61.6263 294.719 61.3337C294.041 61.0257 293.508 60.6022 293.121 60.0632C292.734 59.5242 292.54 58.9005 292.54 58.1921C292.54 57.0834 292.984 56.2133 293.872 55.5819C294.759 54.9351 295.978 54.6117 297.528 54.6117C298.738 54.6117 299.86 54.835 300.893 55.2816V54.0342C300.893 53.1872 300.635 52.5558 300.118 52.1401C299.618 51.7243 298.875 51.5164 297.891 51.5164C297.326 51.5164 296.737 51.6011 296.123 51.7705C295.51 51.9245 294.824 52.1708 294.065 52.5096L293.169 50.7772C294.106 50.3614 294.977 50.0611 295.784 49.8763C296.591 49.6761 297.407 49.576 298.23 49.576C299.828 49.576 301.063 49.9379 301.934 50.6617C302.822 51.3855 303.266 52.4172 303.266 53.757V61.5647H300.893V60.5483C300.344 60.9641 299.755 61.2721 299.126 61.4723C298.496 61.6725 297.81 61.7726 297.068 61.7726ZM294.864 58.1459C294.864 58.7157 295.114 59.1777 295.615 59.5319C296.131 59.8707 296.801 60.0401 297.624 60.0401C298.27 60.0401 298.859 59.9554 299.392 59.786C299.941 59.6012 300.441 59.3163 300.893 58.9313V56.9448C300.425 56.683 299.933 56.4982 299.416 56.3904C298.916 56.2672 298.351 56.2056 297.721 56.2056C296.834 56.2056 296.131 56.3827 295.615 56.7369C295.114 57.0757 294.864 57.5453 294.864 58.1459Z" fill="#231F20"/>
<path d="M306.056 61.5647V49.807H308.477V51.0082C309.43 50.0534 310.664 49.576 312.182 49.576C313.134 49.576 313.965 49.7685 314.676 50.1535C315.402 50.5385 315.967 51.0775 316.37 51.7705C316.79 52.4634 317 53.2642 317 54.1728V61.5647H314.579V54.5655C314.579 53.6415 314.304 52.9177 313.756 52.3941C313.223 51.8552 312.472 51.5857 311.504 51.5857C310.858 51.5857 310.277 51.7166 309.76 51.9784C309.244 52.2401 308.816 52.6174 308.477 53.1102V61.5647H306.056Z" fill="#231F20"/>
</svg>
