<svg width="37" height="38" viewBox="0 0 37 38" fill="none" xmlns="http://www.w3.org/2000/svg">
<path d="M18.5 12.4688C17.2422 12.4688 16.0127 12.8518 14.9669 13.5695C13.9211 14.2871 13.106 15.3072 12.6247 16.5006C12.1434 17.694 12.0174 19.0072 12.2628 20.2742C12.5082 21.5411 13.1139 22.7049 14.0032 23.6183C14.8926 24.5317 16.0257 25.1537 17.2593 25.4058C18.4929 25.6578 19.7716 25.5284 20.9336 25.0341C22.0957 24.5398 23.0888 23.7026 23.7876 22.6286C24.4864 21.5545 24.8594 20.2918 24.8594 19C24.8575 17.2684 24.1868 15.6083 22.9946 14.3839C21.8024 13.1595 20.186 12.4707 18.5 12.4688ZM18.5 24.3438C17.4709 24.3438 16.4649 24.0303 15.6093 23.4432C14.7536 22.856 14.0868 22.0214 13.6929 21.045C13.2991 20.0685 13.1961 18.9941 13.3969 17.9575C13.5976 16.9209 14.0932 15.9687 14.8208 15.2214C15.5485 14.4741 16.4756 13.9651 17.4849 13.7589C18.4942 13.5527 19.5404 13.6586 20.4911 14.063C21.4419 14.4675 22.2545 15.1524 22.8262 16.0312C23.398 16.9099 23.7031 17.9431 23.7031 19C23.7016 20.4168 23.1529 21.7751 22.1775 22.7769C21.202 23.7787 19.8795 24.3422 18.5 24.3438ZM24.8594 4.75H12.1406C10.148 4.75232 8.23773 5.56629 6.82877 7.01333C5.4198 8.46037 4.62726 10.4223 4.625 12.4688V25.5312C4.62726 27.5777 5.4198 29.5396 6.82877 30.9867C8.23773 32.4337 10.148 33.2477 12.1406 33.25H24.8594C26.8519 33.2477 28.7623 32.4337 30.1712 30.9867C31.5802 29.5396 32.3727 27.5777 32.375 25.5312V12.4688C32.3727 10.4223 31.5802 8.46037 30.1712 7.01333C28.7623 5.56629 26.8519 4.75232 24.8594 4.75ZM31.2188 25.5312C31.2168 27.2628 30.5462 28.923 29.354 30.1474C28.1618 31.3718 26.5454 32.0605 24.8594 32.0625H12.1406C10.4546 32.0605 8.83818 31.3718 7.64598 30.1474C6.45378 28.923 5.78316 27.2628 5.78125 25.5312V12.4688C5.78316 10.7372 6.45378 9.07705 7.64598 7.85263C8.83818 6.62821 10.4546 5.93946 12.1406 5.9375H24.8594C26.5454 5.93946 28.1618 6.62821 29.354 7.85263C30.5462 9.07705 31.2168 10.7372 31.2188 12.4688V25.5312ZM27.1719 11.2812C27.1719 11.5161 27.1041 11.7457 26.977 11.941C26.85 12.1363 26.6694 12.2885 26.4581 12.3784C26.2468 12.4682 26.0143 12.4918 25.7901 12.4459C25.5658 12.4001 25.3597 12.287 25.198 12.1209C25.0363 11.9549 24.9262 11.7433 24.8816 11.5129C24.837 11.2826 24.8599 11.0438 24.9474 10.8268C25.0349 10.6098 25.1831 10.4244 25.3732 10.2939C25.5634 10.1634 25.7869 10.0938 26.0156 10.0938C26.3222 10.0941 26.616 10.2194 26.8328 10.442C27.0496 10.6646 27.1715 10.9664 27.1719 11.2812Z" fill="black"/>
</svg>
