<svg width="162" height="39" viewBox="0 0 162 39" fill="none" xmlns="http://www.w3.org/2000/svg">
<path d="M41.6249 14.1868C41.1113 14.1868 40.6339 14.1018 40.1927 13.9318C39.7581 13.7555 39.3729 13.5131 39.0371 13.2046C38.7079 12.8898 38.4511 12.5278 38.2667 12.1186C38.0889 11.703 38 11.256 38 10.7775C38 10.2991 38.0889 9.85519 38.2667 9.44596C38.4511 9.03043 38.7079 8.66842 39.0371 8.35992C39.3729 8.04512 39.7614 7.80273 40.2026 7.63274C40.6438 7.45645 41.1179 7.36831 41.6249 7.36831C41.9871 7.36831 42.3394 7.41553 42.6818 7.50997C43.0308 7.59811 43.3501 7.72718 43.6399 7.89717C43.9362 8.06716 44.193 8.27177 44.4103 8.51102L43.7189 9.19098C43.4621 8.89507 43.1493 8.67156 42.7806 8.52046C42.4118 8.36306 42.0266 8.28437 41.6249 8.28437C41.2562 8.28437 40.9138 8.34732 40.5977 8.47324C40.2882 8.59916 40.0182 8.77545 39.7878 9.0021C39.5573 9.22246 39.3762 9.48374 39.2445 9.78594C39.1194 10.0881 39.0569 10.4187 39.0569 10.7775C39.0569 11.1301 39.1194 11.4575 39.2445 11.7597C39.3762 12.0619 39.5606 12.3263 39.7976 12.553C40.0347 12.7796 40.3113 12.9559 40.6273 13.0818C40.9434 13.2078 41.2858 13.2707 41.6546 13.2707C42.0562 13.2707 42.4349 13.1952 42.7904 13.0441C43.1526 12.8867 43.4588 12.6663 43.709 12.383L44.3905 13.0441C44.1601 13.277 43.8967 13.4816 43.6004 13.6579C43.3106 13.8279 42.9946 13.9601 42.6521 14.0546C42.3163 14.1427 41.9739 14.1868 41.6249 14.1868Z" fill="white"/>
<path d="M45.2867 14.0829V7.47219L46.2744 7.26443V9.76705C46.6629 9.37671 47.1666 9.18153 47.7856 9.18153C48.1741 9.18153 48.5132 9.26023 48.8029 9.41763C49.0992 9.57503 49.3297 9.79538 49.4943 10.0787C49.6655 10.362 49.7511 10.6894 49.7511 11.0609V14.0829H48.7634V11.2214C48.7634 10.8437 48.6515 10.5477 48.4276 10.3337C48.2037 10.1133 47.8975 10.0031 47.509 10.0031C47.2456 10.0031 47.0086 10.0567 46.7979 10.1637C46.5871 10.2707 46.4126 10.425 46.2744 10.6264V14.0829H45.2867Z" fill="white"/>
<path d="M52.7884 14.1773C52.3999 14.1773 52.0575 14.0986 51.7611 13.9412C51.4648 13.7838 51.2344 13.5635 51.0697 13.2802C50.9051 12.9906 50.8228 12.66 50.8228 12.2886V9.27597H51.8006V12.128C51.8006 12.5058 51.9126 12.8048 52.1365 13.0252C52.3669 13.2455 52.6731 13.3557 53.055 13.3557C53.325 13.3557 53.5654 13.3022 53.7761 13.1952C53.9868 13.0818 54.158 12.9244 54.2897 12.723V9.27597H55.2774V14.0829H54.2897V13.5918C53.9012 13.9822 53.4007 14.1773 52.7884 14.1773Z" fill="white"/>
<path d="M56.4467 14.0829V9.27597H57.4344V9.88982C57.5924 9.66317 57.7867 9.48688 58.0172 9.36097C58.2542 9.22875 58.5209 9.16264 58.8172 9.16264C59.0213 9.16894 59.1893 9.19727 59.321 9.24764V10.0976C59.2288 10.0598 59.1333 10.0346 59.0345 10.022C58.9357 10.0031 58.837 9.9937 58.7382 9.9937C58.4485 9.9937 58.1917 10.0693 57.9678 10.2204C57.7439 10.3652 57.5661 10.5792 57.4344 10.8625V14.0829H56.4467Z" fill="white"/>
<path d="M62.1833 14.1679C61.7026 14.1679 61.2648 14.0577 60.8697 13.8374C60.4746 13.617 60.1618 13.3179 59.9313 12.9402C59.7075 12.5624 59.5955 12.1406 59.5955 11.6747C59.5955 11.2088 59.7107 10.7901 59.9412 10.4187C60.1717 10.0409 60.4812 9.74187 60.8697 9.52151C61.2648 9.29486 61.7026 9.18153 62.1833 9.18153C62.5652 9.18153 62.9307 9.25079 63.2797 9.3893C63.6353 9.52781 63.9415 9.72298 64.1983 9.97482L63.5859 10.6264C63.3949 10.425 63.1809 10.2739 62.9439 10.1731C62.7068 10.0724 62.4599 10.022 62.2031 10.022C61.9002 10.022 61.6236 10.0944 61.3734 10.2392C61.1298 10.3841 60.9355 10.5824 60.7906 10.8342C60.6458 11.086 60.5734 11.3662 60.5734 11.6747C60.5734 11.9832 60.6458 12.2634 60.7906 12.5152C60.9355 12.7671 61.1331 12.9685 61.3833 13.1196C61.6335 13.2644 61.9134 13.3368 62.2228 13.3368C62.4796 13.3368 62.72 13.2896 62.9439 13.1952C63.1678 13.0944 63.3785 12.9496 63.576 12.7608L64.1785 13.3652C63.9151 13.6233 63.6089 13.8216 63.2599 13.9601C62.9175 14.0986 62.5587 14.1679 62.1833 14.1679Z" fill="white"/>
<path d="M64.9735 14.0829V7.47219L65.9612 7.26443V9.76705C66.3497 9.37671 66.8534 9.18153 67.4724 9.18153C67.8609 9.18153 68.2 9.26023 68.4897 9.41763C68.7861 9.57503 69.0165 9.79538 69.1812 10.0787C69.3524 10.362 69.438 10.6894 69.438 11.0609V14.0829H68.4502V11.2214C68.4502 10.8437 68.3383 10.5477 68.1144 10.3337C67.8905 10.1133 67.5843 10.0031 67.1958 10.0031C66.9324 10.0031 66.6954 10.0567 66.4847 10.1637C66.274 10.2707 66.0995 10.425 65.9612 10.6264V14.0829H64.9735Z" fill="white"/>
<path d="M76.0593 14.1868C75.5588 14.1868 75.0913 14.1018 74.6567 13.9318C74.2221 13.7555 73.8369 13.5131 73.5011 13.2046C73.1719 12.8898 72.9151 12.5278 72.7307 12.1186C72.5529 11.703 72.464 11.256 72.464 10.7775C72.464 10.2991 72.5529 9.85519 72.7307 9.44596C72.9151 9.03043 73.1719 8.66842 73.5011 8.35992C73.8369 8.04512 74.2221 7.80273 74.6567 7.63274C75.0913 7.45645 75.5588 7.36831 76.0593 7.36831C76.5597 7.36831 77.0273 7.45645 77.4618 7.63274C77.903 7.80273 78.2882 8.04512 78.6175 8.35992C78.9467 8.66842 79.2035 9.03043 79.3879 9.44596C79.5723 9.85519 79.6645 10.2991 79.6645 10.7775C79.6645 11.256 79.5723 11.703 79.3879 12.1186C79.2035 12.5278 78.9467 12.8898 78.6175 13.2046C78.2882 13.5131 77.903 13.7555 77.4618 13.9318C77.0273 14.1018 76.5597 14.1868 76.0593 14.1868ZM76.0692 13.2707C76.4247 13.2707 76.754 13.2078 77.0569 13.0818C77.3664 12.9559 77.6363 12.7828 77.8668 12.5624C78.0973 12.3358 78.2784 12.0714 78.4101 11.7692C78.5417 11.4607 78.6076 11.1301 78.6076 10.7775C78.6076 10.4187 78.5417 10.0881 78.4101 9.78594C78.2784 9.48374 78.0973 9.22246 77.8668 9.0021C77.6363 8.77545 77.3664 8.59916 77.0569 8.47324C76.754 8.34732 76.4247 8.28437 76.0692 8.28437C75.707 8.28437 75.3712 8.34732 75.0617 8.47324C74.7522 8.59916 74.4822 8.77545 74.2518 9.0021C74.0213 9.22246 73.8402 9.48374 73.7085 9.78594C73.5834 10.0881 73.5209 10.4155 73.5209 10.7681C73.5209 11.127 73.5834 11.4607 73.7085 11.7692C73.8402 12.0714 74.0213 12.3358 74.2518 12.5624C74.4822 12.7828 74.7522 12.9559 75.0617 13.0818C75.3712 13.2078 75.707 13.2707 76.0692 13.2707Z" fill="white"/>
<path d="M81.3887 14.0829V10.0693H80.2232V9.27597H81.3887V8.54879C81.3887 8.04512 81.5336 7.66107 81.8233 7.39664C82.1196 7.13221 82.5411 7 83.0876 7C83.2259 7 83.3543 7.00944 83.4728 7.02833C83.5979 7.04092 83.7099 7.06296 83.8086 7.09444V7.90661C83.6901 7.87513 83.5847 7.8531 83.4926 7.8405C83.4004 7.82162 83.2983 7.81217 83.1864 7.81217C82.9098 7.81217 82.7024 7.87513 82.5641 8.00105C82.4324 8.12067 82.3666 8.3127 82.3666 8.57713V9.27597H83.8086V10.0693H82.3666V14.0829H81.3887Z" fill="white"/>
<path d="M90.0751 14.1868C89.5615 14.1868 89.0841 14.1018 88.643 13.9318C88.2084 13.7555 87.8232 13.5131 87.4873 13.2046C87.1581 12.8898 86.9013 12.5278 86.7169 12.1186C86.5391 11.703 86.4502 11.256 86.4502 10.7775C86.4502 10.2991 86.5391 9.85519 86.7169 9.44596C86.9013 9.03043 87.1581 8.66842 87.4873 8.35992C87.8232 8.04512 88.2117 7.80273 88.6528 7.63274C89.094 7.45645 89.5681 7.36831 90.0751 7.36831C90.4373 7.36831 90.7896 7.41553 91.132 7.50997C91.481 7.59811 91.8004 7.72718 92.0901 7.89717C92.3864 8.06716 92.6432 8.27177 92.8605 8.51102L92.1691 9.19098C91.9123 8.89507 91.5995 8.67156 91.2308 8.52046C90.862 8.36306 90.4768 8.28437 90.0751 8.28437C89.7064 8.28437 89.364 8.34732 89.0479 8.47324C88.7384 8.59916 88.4685 8.77545 88.238 9.0021C88.0075 9.22246 87.8264 9.48374 87.6947 9.78594C87.5696 10.0881 87.5071 10.4187 87.5071 10.7775C87.5071 11.1301 87.5696 11.4575 87.6947 11.7597C87.8264 12.0619 88.0108 12.3263 88.2479 12.553C88.4849 12.7796 88.7615 12.9559 89.0776 13.0818C89.3936 13.2078 89.736 13.2707 90.1048 13.2707C90.5065 13.2707 90.8851 13.1952 91.2407 13.0441C91.6028 12.8867 91.909 12.6663 92.1592 12.383L92.8408 13.0441C92.6103 13.277 92.3469 13.4816 92.0506 13.6579C91.7609 13.8279 91.4448 13.9601 91.1024 14.0546C90.7666 14.1427 90.4241 14.1868 90.0751 14.1868Z" fill="white"/>
<path d="M93.7369 14.0829V7.47219L94.7246 7.26443V9.76705C95.1131 9.37671 95.6168 9.18153 96.2358 9.18153C96.6243 9.18153 96.9634 9.26023 97.2532 9.41763C97.5495 9.57503 97.7799 9.79538 97.9446 10.0787C98.1158 10.362 98.2014 10.6894 98.2014 11.0609V14.0829H97.2136V11.2214C97.2136 10.8437 97.1017 10.5477 96.8778 10.3337C96.6539 10.1133 96.3477 10.0031 95.9592 10.0031C95.6959 10.0031 95.4588 10.0567 95.2481 10.1637C95.0374 10.2707 94.8629 10.425 94.7246 10.6264V14.0829H93.7369Z" fill="white"/>
<path d="M99.341 14.0829V9.27597H100.329V9.88982C100.487 9.66317 100.681 9.48688 100.911 9.36097C101.149 9.22875 101.415 9.16264 101.712 9.16264C101.916 9.16894 102.084 9.19727 102.215 9.24764V10.0976C102.123 10.0598 102.028 10.0346 101.929 10.022C101.83 10.0031 101.731 9.9937 101.633 9.9937C101.343 9.9937 101.086 10.0693 100.862 10.2204C100.638 10.3652 100.46 10.5792 100.329 10.8625V14.0829H99.341Z" fill="white"/>
<path d="M103.006 14.0829V9.27597H103.994V14.0829H103.006ZM103.5 8.50157C103.336 8.50157 103.194 8.44491 103.076 8.33158C102.957 8.21196 102.898 8.07345 102.898 7.91605C102.898 7.75236 102.957 7.617 103.076 7.50997C103.194 7.39664 103.336 7.33998 103.5 7.33998C103.671 7.33998 103.816 7.39664 103.935 7.50997C104.053 7.617 104.113 7.75236 104.113 7.91605C104.113 8.07345 104.053 8.21196 103.935 8.33158C103.816 8.44491 103.671 8.50157 103.5 8.50157Z" fill="white"/>
<path d="M106.886 14.1773C106.451 14.1773 106.043 14.1175 105.661 13.9979C105.286 13.872 104.96 13.6957 104.683 13.469L105.227 12.8458C105.483 13.0409 105.747 13.192 106.017 13.2991C106.293 13.3998 106.573 13.4502 106.856 13.4502C107.212 13.4502 107.502 13.3841 107.725 13.2518C107.949 13.1196 108.061 12.9465 108.061 12.7324C108.061 12.5561 107.995 12.4176 107.864 12.3169C107.732 12.2162 107.528 12.1469 107.251 12.1091L106.343 11.9864C105.842 11.9171 105.467 11.7692 105.217 11.5425C104.966 11.3158 104.841 11.0136 104.841 10.6359C104.841 10.3463 104.924 10.0944 105.088 9.88038C105.253 9.66002 105.483 9.49003 105.78 9.37041C106.076 9.24449 106.422 9.18153 106.817 9.18153C107.179 9.18153 107.528 9.2319 107.864 9.33263C108.2 9.43337 108.522 9.59077 108.832 9.80483L108.328 10.4281C108.051 10.2518 107.781 10.1228 107.518 10.0409C107.261 9.95908 107.001 9.91815 106.738 9.91815C106.435 9.91815 106.191 9.98111 106.007 10.107C105.822 10.2267 105.73 10.3841 105.73 10.5792C105.73 10.7555 105.793 10.894 105.918 10.9948C106.05 11.0892 106.264 11.1553 106.56 11.1931L107.469 11.3158C107.969 11.3851 108.348 11.5331 108.604 11.7597C108.861 11.9801 108.99 12.2791 108.99 12.6569C108.99 12.9465 108.898 13.2078 108.713 13.4407C108.529 13.6674 108.279 13.8468 107.962 13.979C107.646 14.1112 107.288 14.1773 106.886 14.1773Z" fill="white"/>
<path d="M111.805 14.1679C111.318 14.1679 110.946 14.0609 110.689 13.8468C110.433 13.6264 110.304 13.3085 110.304 12.893V10.0693H109.237V9.27597H110.304V8.04827L111.282 7.82162V9.27597H112.764V10.0693H111.282V12.6758C111.282 12.9213 111.338 13.0976 111.45 13.2046C111.568 13.3054 111.759 13.3557 112.023 13.3557C112.161 13.3557 112.283 13.3463 112.388 13.3274C112.5 13.3085 112.619 13.2802 112.744 13.2424V14.0357C112.612 14.0797 112.457 14.1112 112.28 14.1301C112.108 14.1553 111.95 14.1679 111.805 14.1679Z" fill="white"/>
<path d="M41.1113 25.0735C40.5121 25.0735 39.9919 24.9538 39.5507 24.7146C39.1095 24.4753 38.7704 24.1385 38.5334 23.7041C38.2963 23.2634 38.1778 22.744 38.1778 22.1459V18.3589H39.2149V22.1459C39.2149 22.5551 39.2906 22.9108 39.4421 23.213C39.6001 23.5152 39.8207 23.7482 40.1038 23.9119C40.3936 24.0756 40.7294 24.1574 41.1113 24.1574C41.5064 24.1574 41.8455 24.0756 42.1287 23.9119C42.4118 23.7482 42.6291 23.5152 42.7806 23.213C42.9386 22.9108 43.0176 22.5551 43.0176 22.1459V18.3589H44.0547V22.1459C44.0547 22.744 43.9329 23.2634 43.6893 23.7041C43.4522 24.1385 43.1131 24.4753 42.6719 24.7146C42.2307 24.9538 41.7105 25.0735 41.1113 25.0735Z" fill="white"/>
<path d="M45.2191 24.9696V20.1626H46.2068V20.6537C46.5954 20.2634 47.0991 20.0682 47.7181 20.0682C48.1066 20.0682 48.4457 20.1469 48.7354 20.3043C49.0317 20.4617 49.2622 20.6821 49.4268 20.9654C49.598 21.2487 49.6836 21.5761 49.6836 21.9475V24.9696H48.6959V22.1081C48.6959 21.7303 48.584 21.4344 48.3601 21.2204C48.1428 21 47.8366 20.8898 47.4415 20.8898C47.1781 20.8898 46.9411 20.9433 46.7303 21.0504C46.5196 21.1574 46.3451 21.3116 46.2068 21.5131V24.9696H45.2191Z" fill="white"/>
<path d="M50.8233 24.9696V20.1626H51.811V24.9696H50.8233ZM51.3171 19.3882C51.1525 19.3882 51.0109 19.3316 50.8924 19.2183C50.7739 19.0986 50.7146 18.9601 50.7146 18.8027C50.7146 18.639 50.7739 18.5037 50.8924 18.3966C51.0109 18.2833 51.1525 18.2267 51.3171 18.2267C51.4883 18.2267 51.6332 18.2833 51.7517 18.3966C51.8702 18.5037 51.9295 18.639 51.9295 18.8027C51.9295 18.9601 51.8702 19.0986 51.7517 19.2183C51.6332 19.3316 51.4883 19.3882 51.3171 19.3882Z" fill="white"/>
<path d="M54.5941 24.9696L52.4211 20.1626H53.5076L55.0781 23.7608L56.6486 20.1626H57.6955L55.5423 24.9696H54.5941Z" fill="white"/>
<path d="M60.5737 25.0546C60.0798 25.0546 59.632 24.9444 59.2304 24.724C58.8353 24.5037 58.5192 24.2046 58.2822 23.8269C58.0517 23.4491 57.9365 23.0273 57.9365 22.5614C57.9365 22.1018 58.0484 21.6863 58.2723 21.3148C58.4962 20.937 58.7991 20.638 59.181 20.4176C59.5629 20.191 59.9876 20.0777 60.4551 20.0777C60.9227 20.0777 61.3375 20.191 61.6997 20.4176C62.0618 20.638 62.3483 20.9402 62.559 21.3242C62.7763 21.702 62.8849 22.1301 62.8849 22.6086V22.873H58.9242C58.9769 23.1375 59.0789 23.3736 59.2304 23.5813C59.3884 23.7891 59.5859 23.9528 59.823 24.0724C60.0666 24.192 60.33 24.2518 60.6132 24.2518C60.8568 24.2518 61.0906 24.2172 61.3144 24.148C61.5449 24.0724 61.7359 23.9654 61.8873 23.8269L62.5195 24.4218C62.2231 24.6359 61.917 24.7964 61.6009 24.9035C61.2914 25.0042 60.949 25.0546 60.5737 25.0546ZM58.934 22.1647H61.9071C61.8676 21.9129 61.7754 21.6926 61.6305 21.5037C61.4922 21.3085 61.3177 21.1574 61.107 21.0504C60.9029 20.937 60.679 20.8804 60.4354 20.8804C60.1852 20.8804 59.9547 20.9339 59.744 21.0409C59.5333 21.148 59.3555 21.2991 59.2106 21.4942C59.0723 21.6831 58.9801 21.9066 58.934 22.1647Z" fill="white"/>
<path d="M63.8256 24.9696V20.1626H64.8134V20.7765C64.9714 20.5498 65.1656 20.3736 65.3961 20.2476C65.6332 20.1154 65.8998 20.0493 66.1962 20.0493C66.4003 20.0556 66.5682 20.0839 66.6999 20.1343V20.9843C66.6077 20.9465 66.5122 20.9213 66.4135 20.9087C66.3147 20.8898 66.2159 20.8804 66.1171 20.8804C65.8274 20.8804 65.5706 20.9559 65.3467 21.107C65.1228 21.2518 64.9451 21.4659 64.8134 21.7492V24.9696H63.8256Z" fill="white"/>
<path d="M69.2195 25.064C68.7849 25.064 68.3766 25.0042 67.9947 24.8846C67.6194 24.7587 67.2935 24.5824 67.0169 24.3557L67.5601 23.7324C67.8169 23.9276 68.0803 24.0787 68.3503 24.1857C68.6269 24.2865 68.9067 24.3368 69.1899 24.3368C69.5454 24.3368 69.8352 24.2707 70.0591 24.1385C70.2829 24.0063 70.3949 23.8332 70.3949 23.6191C70.3949 23.4428 70.329 23.3043 70.1973 23.2036C70.0656 23.1028 69.8615 23.0336 69.585 22.9958L68.6763 22.873C68.1758 22.8038 67.8005 22.6558 67.5503 22.4292C67.3 22.2025 67.1749 21.9003 67.1749 21.5226C67.1749 21.2329 67.2572 20.9811 67.4219 20.7671C67.5865 20.5467 67.8169 20.3767 68.1133 20.2571C68.4096 20.1312 68.7553 20.0682 69.1504 20.0682C69.5125 20.0682 69.8615 20.1186 70.1973 20.2193C70.5332 20.32 70.8558 20.4774 71.1653 20.6915L70.6616 21.3148C70.385 21.1385 70.115 21.0094 69.8516 20.9276C69.5948 20.8458 69.3347 20.8048 69.0713 20.8048C68.7684 20.8048 68.5248 20.8678 68.3404 20.9937C68.1561 21.1133 68.0639 21.2707 68.0639 21.4659C68.0639 21.6422 68.1264 21.7807 68.2515 21.8814C68.3832 21.9759 68.5972 22.042 68.8936 22.0797L69.8023 22.2025C70.3027 22.2718 70.6813 22.4197 70.9381 22.6464C71.1949 22.8667 71.3233 23.1658 71.3233 23.5435C71.3233 23.8332 71.2312 24.0944 71.0468 24.3274C70.8624 24.554 70.6122 24.7335 70.2961 24.8657C69.98 24.9979 69.6212 25.064 69.2195 25.064Z" fill="white"/>
<path d="M72.0823 24.9696V20.1626H73.0701V24.9696H72.0823ZM72.5762 19.3882C72.4116 19.3882 72.27 19.3316 72.1515 19.2183C72.033 19.0986 71.9737 18.9601 71.9737 18.8027C71.9737 18.639 72.033 18.5037 72.1515 18.3966C72.27 18.2833 72.4116 18.2267 72.5762 18.2267C72.7474 18.2267 72.8923 18.2833 73.0108 18.3966C73.1293 18.5037 73.1886 18.639 73.1886 18.8027C73.1886 18.9601 73.1293 19.0986 73.0108 19.2183C72.8923 19.3316 72.7474 19.3882 72.5762 19.3882Z" fill="white"/>
<path d="M76.3865 25.0546C75.8993 25.0546 75.5272 24.9475 75.2704 24.7335C75.0136 24.5131 74.8852 24.1952 74.8852 23.7796V20.9559H73.8185V20.1626H74.8852V18.9349L75.8631 18.7083V20.1626H77.3446V20.9559H75.8631V23.5624C75.8631 23.808 75.919 23.9843 76.031 24.0913C76.1495 24.192 76.3405 24.2424 76.6038 24.2424C76.7421 24.2424 76.8639 24.233 76.9693 24.2141C77.0812 24.1952 77.1998 24.1668 77.3249 24.1291V24.9223C77.1932 24.9664 77.0384 24.9979 76.8606 25.0168C76.6894 25.042 76.5314 25.0546 76.3865 25.0546Z" fill="white"/>
<path d="M78.5046 27C78.3992 27 78.3005 26.9937 78.2083 26.9811C78.1161 26.9748 78.0404 26.9622 77.9811 26.9433V26.1123C78.0996 26.1375 78.2445 26.1501 78.4157 26.1501C78.8766 26.1501 79.2092 25.914 79.4133 25.4418L79.6306 24.979L77.6156 20.1626H78.712L80.1738 23.8269L81.7937 20.1626H82.8604L80.4306 25.5645C80.2726 25.9045 80.1047 26.1784 79.9269 26.3862C79.7491 26.6002 79.545 26.7545 79.3145 26.8489C79.084 26.9496 78.8141 27 78.5046 27Z" fill="white"/>
<path d="M88.9556 25.0735C88.4551 25.0735 87.9876 24.9885 87.553 24.8185C87.1184 24.6422 86.7332 24.3998 86.3974 24.0913C86.0681 23.7765 85.8113 23.4145 85.6269 23.0052C85.4492 22.5897 85.3603 22.1427 85.3603 21.6642C85.3603 21.1857 85.4492 20.7419 85.6269 20.3326C85.8113 19.9171 86.0681 19.5551 86.3974 19.2466C86.7332 18.9318 87.1184 18.6894 87.553 18.5194C87.9876 18.3431 88.4551 18.255 88.9556 18.255C89.456 18.255 89.9235 18.3431 90.3581 18.5194C90.7993 18.6894 91.1845 18.9318 91.5137 19.2466C91.843 19.5551 92.0998 19.9171 92.2842 20.3326C92.4685 20.7419 92.5607 21.1857 92.5607 21.6642C92.5607 22.1427 92.4685 22.5897 92.2842 23.0052C92.0998 23.4145 91.843 23.7765 91.5137 24.0913C91.1845 24.3998 90.7993 24.6422 90.3581 24.8185C89.9235 24.9885 89.456 25.0735 88.9556 25.0735ZM88.9654 24.1574C89.321 24.1574 89.6502 24.0944 89.9532 23.9685C90.2626 23.8426 90.5326 23.6695 90.7631 23.4491C90.9935 23.2225 91.1746 22.958 91.3063 22.6558C91.438 22.3473 91.5039 22.0168 91.5039 21.6642C91.5039 21.3054 91.438 20.9748 91.3063 20.6726C91.1746 20.3704 90.9935 20.1091 90.7631 19.8888C90.5326 19.6621 90.2626 19.4858 89.9532 19.3599C89.6502 19.234 89.321 19.171 88.9654 19.171C88.6033 19.171 88.2674 19.234 87.958 19.3599C87.6485 19.4858 87.3785 19.6621 87.148 19.8888C86.9176 20.1091 86.7365 20.3704 86.6048 20.6726C86.4797 20.9748 86.4171 21.3022 86.4171 21.6548C86.4171 22.0136 86.4797 22.3473 86.6048 22.6558C86.7365 22.958 86.9176 23.2225 87.148 23.4491C87.3785 23.6695 87.6485 23.8426 87.958 23.9685C88.2674 24.0944 88.6033 24.1574 88.9654 24.1574Z" fill="white"/>
<path d="M94.285 24.9696V20.9559H93.1195V20.1626H94.285V19.4355C94.285 18.9318 94.4299 18.5477 94.7196 18.2833C95.0159 18.0189 95.4373 17.8867 95.9839 17.8867C96.1221 17.8867 96.2505 17.8961 96.3691 17.915C96.4942 17.9276 96.6061 17.9496 96.7049 17.9811V18.7933C96.5864 18.7618 96.481 18.7398 96.3888 18.7272C96.2966 18.7083 96.1946 18.6988 96.0826 18.6988C95.8061 18.6988 95.5986 18.7618 95.4604 18.8877C95.3287 19.0073 95.2628 19.1994 95.2628 19.4638V20.1626H96.7049V20.9559H95.2628V24.9696H94.285Z" fill="white"/>
<path d="M99.6428 24.9696V18.3589H100.68V24.9696H99.6428Z" fill="white"/>
<path d="M101.974 24.9696V18.3589L102.962 18.1794V20.6159C103.383 20.2634 103.894 20.0871 104.493 20.0871C104.967 20.0871 105.395 20.1973 105.777 20.4176C106.166 20.638 106.472 20.9339 106.696 21.3054C106.919 21.6768 107.031 22.0955 107.031 22.5614C107.031 23.0273 106.916 23.4491 106.686 23.8269C106.462 24.1983 106.156 24.4942 105.767 24.7146C105.385 24.9349 104.954 25.0451 104.473 25.0451C104.197 25.0451 103.927 25.0042 103.663 24.9223C103.406 24.8342 103.169 24.7114 102.952 24.554V24.9696H101.974ZM104.365 24.2235C104.687 24.2235 104.974 24.1511 105.224 24.0063C105.481 23.8615 105.685 23.6663 105.836 23.4208C105.988 23.1689 106.063 22.8856 106.063 22.5708C106.063 22.256 105.988 21.9727 105.836 21.7209C105.685 21.469 105.481 21.2707 105.224 21.1259C104.974 20.9811 104.687 20.9087 104.365 20.9087C104.081 20.9087 103.818 20.9591 103.574 21.0598C103.331 21.1605 103.127 21.3022 102.962 21.4848V23.6569C103.127 23.8332 103.331 23.9717 103.574 24.0724C103.825 24.1731 104.088 24.2235 104.365 24.2235Z" fill="white"/>
<path d="M109.612 25.0546C109.25 25.0546 108.931 24.9948 108.654 24.8751C108.378 24.7492 108.16 24.5761 108.002 24.3557C107.844 24.1354 107.765 23.8804 107.765 23.5908C107.765 23.1375 107.946 22.7817 108.309 22.5236C108.671 22.2592 109.168 22.127 109.8 22.127C110.294 22.127 110.752 22.2183 111.173 22.4008V21.8909C111.173 21.5446 111.068 21.2865 110.857 21.1165C110.653 20.9465 110.35 20.8615 109.948 20.8615C109.718 20.8615 109.477 20.8961 109.227 20.9654C108.977 21.0283 108.697 21.1291 108.388 21.2676L108.022 20.5593C108.404 20.3893 108.76 20.2665 109.089 20.191C109.418 20.1091 109.751 20.0682 110.086 20.0682C110.738 20.0682 111.242 20.2162 111.598 20.5121C111.96 20.808 112.141 21.2298 112.141 21.7775V24.9696H111.173V24.554C110.949 24.724 110.709 24.8499 110.452 24.9318C110.195 25.0136 109.915 25.0546 109.612 25.0546ZM108.714 23.5719C108.714 23.8048 108.816 23.9937 109.02 24.1385C109.23 24.277 109.504 24.3463 109.84 24.3463C110.103 24.3463 110.343 24.3116 110.561 24.2424C110.784 24.1668 110.989 24.0504 111.173 23.893V23.0808C110.982 22.9738 110.781 22.8982 110.57 22.8541C110.366 22.8038 110.136 22.7786 109.879 22.7786C109.517 22.7786 109.23 22.851 109.02 22.9958C108.816 23.1343 108.714 23.3263 108.714 23.5719Z" fill="white"/>
<path d="M115.59 25.0451C115.123 25.0451 114.695 24.9349 114.306 24.7146C113.918 24.4942 113.612 24.1983 113.388 23.8269C113.164 23.4491 113.052 23.0273 113.052 22.5614C113.052 22.0955 113.164 21.6768 113.388 21.3054C113.618 20.9339 113.928 20.638 114.316 20.4176C114.705 20.1973 115.136 20.0871 115.61 20.0871C115.887 20.0871 116.153 20.128 116.41 20.2099C116.667 20.2917 116.904 20.4113 117.121 20.5687V18.3589L118.109 18.1794V24.9696H117.131V24.5068C116.703 24.8657 116.189 25.0451 115.59 25.0451ZM115.719 24.2235C116.008 24.2235 116.272 24.1731 116.509 24.0724C116.752 23.9717 116.957 23.8269 117.121 23.638V21.4753C116.957 21.2991 116.752 21.1605 116.509 21.0598C116.272 20.9528 116.008 20.8993 115.719 20.8993C115.403 20.8993 115.116 20.9717 114.859 21.1165C114.603 21.2613 114.398 21.4596 114.247 21.7114C114.096 21.957 114.02 22.2371 114.02 22.5519C114.02 22.8667 114.096 23.1501 114.247 23.4019C114.398 23.6537 114.603 23.8552 114.859 24.0063C115.116 24.1511 115.403 24.2235 115.719 24.2235Z" fill="white"/>
<path d="M120.869 25.0546C120.507 25.0546 120.187 24.9948 119.911 24.8751C119.634 24.7492 119.417 24.5761 119.259 24.3557C119.101 24.1354 119.022 23.8804 119.022 23.5908C119.022 23.1375 119.203 22.7817 119.565 22.5236C119.927 22.2592 120.424 22.127 121.057 22.127C121.55 22.127 122.008 22.2183 122.429 22.4008V21.8909C122.429 21.5446 122.324 21.2865 122.113 21.1165C121.909 20.9465 121.606 20.8615 121.205 20.8615C120.974 20.8615 120.734 20.8961 120.484 20.9654C120.233 21.0283 119.954 21.1291 119.644 21.2676L119.279 20.5593C119.661 20.3893 120.016 20.2665 120.345 20.191C120.675 20.1091 121.007 20.0682 121.343 20.0682C121.995 20.0682 122.499 20.2162 122.854 20.5121C123.216 20.808 123.397 21.2298 123.397 21.7775V24.9696H122.429V24.554C122.206 24.724 121.965 24.8499 121.708 24.9318C121.452 25.0136 121.172 25.0546 120.869 25.0546ZM119.97 23.5719C119.97 23.8048 120.072 23.9937 120.276 24.1385C120.487 24.277 120.76 24.3463 121.096 24.3463C121.359 24.3463 121.6 24.3116 121.817 24.2424C122.041 24.1668 122.245 24.0504 122.429 23.893V23.0808C122.238 22.9738 122.038 22.8982 121.827 22.8541C121.623 22.8038 121.392 22.7786 121.136 22.7786C120.773 22.7786 120.487 22.851 120.276 22.9958C120.072 23.1343 119.97 23.3263 119.97 23.5719Z" fill="white"/>
<path d="M124.536 24.9696V20.1626H125.523V20.6537C125.912 20.2634 126.415 20.0682 127.034 20.0682C127.423 20.0682 127.762 20.1469 128.052 20.3043C128.348 20.4617 128.579 20.6821 128.743 20.9654C128.914 21.2487 129 21.5761 129 21.9475V24.9696H128.012V22.1081C128.012 21.7303 127.9 21.4344 127.676 21.2204C127.459 21 127.153 20.8898 126.758 20.8898C126.494 20.8898 126.257 20.9433 126.047 21.0504C125.836 21.1574 125.662 21.3116 125.523 21.5131V24.9696H124.536Z" fill="white"/>
<path fill-rule="evenodd" clip-rule="evenodd" d="M24.1876 7.95092C21.985 7.911 19.8971 8.94957 18.5724 10.744L16.983 12.897C16.8074 13.1349 16.4758 13.1827 16.2425 13.0036C16.0091 12.8246 15.9623 12.4866 16.1379 12.2487L17.7273 10.0956C19.2558 8.02515 21.6649 6.8268 24.2064 6.87286L32.3288 7.02007C32.6208 7.02536 32.8533 7.27099 32.8481 7.56868C32.8429 7.86638 32.602 8.10342 32.31 8.09813L24.1876 7.95092Z" fill="white"/>
<path fill-rule="evenodd" clip-rule="evenodd" d="M24.1876 11.589C21.985 11.5501 19.8971 12.5634 18.5724 14.3142L16.983 16.415C16.8074 16.6471 16.4758 16.6937 16.2425 16.519C16.0091 16.3443 15.9623 16.0145 16.1379 15.7824L17.7273 13.6816C19.2558 11.6614 21.6649 10.4922 24.2064 10.5371L32.3288 10.6808C32.6208 10.6859 32.8533 10.9256 32.8481 11.2161C32.8429 11.5065 32.602 11.7378 32.31 11.7326L24.1876 11.589Z" fill="white"/>
<path fill-rule="evenodd" clip-rule="evenodd" d="M24.1876 15.7837C21.985 15.7438 19.8971 16.7823 18.5724 18.5767L16.983 20.7298C16.8074 20.9677 16.4758 21.0154 16.2425 20.8364C16.0091 20.6573 15.9623 20.3193 16.1379 20.0814L17.7273 17.9284C19.2558 15.8579 21.6649 14.6596 24.2064 14.7056L32.3288 14.8528C32.6208 14.8581 32.8533 15.1037 32.8481 15.4014C32.8429 15.6991 32.602 15.9362 32.31 15.9309L24.1876 15.7837Z" fill="white"/>
<path fill-rule="evenodd" clip-rule="evenodd" d="M24.1876 20.3502C21.985 20.3123 19.8971 21.2963 18.5724 22.9962L16.983 25.036C16.8074 25.2613 16.4758 25.3065 16.2425 25.1369C16.0091 24.9673 15.9623 24.6471 16.1379 24.4217L17.7273 22.382C19.2558 20.4205 21.6649 19.2852 24.2064 19.3289L32.3288 19.4683C32.6208 19.4733 32.8533 19.706 32.8481 19.988C32.8429 20.2701 32.602 20.4946 32.31 20.4896L24.1876 20.3502Z" fill="white"/>
<path fill-rule="evenodd" clip-rule="evenodd" d="M24.0322 24.6842C21.8945 24.6842 19.881 25.679 18.5955 27.3702L16.9733 29.5046C16.7994 29.7333 16.4713 29.7792 16.2403 29.6071C16.0094 29.435 15.963 29.1101 16.1368 28.8814L17.7591 26.747C19.2423 24.7955 21.5656 23.6477 24.0322 23.6477H31.9956C32.2846 23.6477 32.519 23.8797 32.519 24.166C32.519 24.4522 32.2846 24.6842 31.9956 24.6842H24.0322Z" fill="white"/>
<path fill-rule="evenodd" clip-rule="evenodd" d="M25.9953 28.0541C24.1117 28.0541 22.3701 29.0509 21.4228 30.6712L20.5142 30.1451C21.6497 28.2027 23.7373 27.0078 25.9953 27.0078H32.3224C32.6127 27.0078 32.848 27.242 32.848 27.5309C32.848 27.8199 32.6127 28.0541 32.3224 28.0541H25.9953Z" fill="white"/>
<path fill-rule="evenodd" clip-rule="evenodd" d="M9.0687 7.9519C11.2912 7.91198 13.398 8.95054 14.7346 10.745L16.3384 12.898C16.5156 13.1359 16.8501 13.1836 17.0856 13.0046C17.321 12.8256 17.3683 12.4876 17.1911 12.2497L15.5873 10.0966C14.045 8.02612 11.6141 6.82778 9.04973 6.87384L0.853924 7.02105C0.559271 7.02634 0.324654 7.27196 0.329893 7.56966C0.335131 7.86736 0.578239 8.1044 0.872894 8.09911L9.0687 7.9519Z" fill="white"/>
<path fill-rule="evenodd" clip-rule="evenodd" d="M9.0687 11.589C11.2912 11.5501 13.398 12.5634 14.7346 14.3142L16.3384 16.415C16.5156 16.6471 16.8501 16.6937 17.0856 16.519C17.321 16.3443 17.3683 16.0145 17.1911 15.7824L15.5873 13.6816C14.045 11.6614 11.6141 10.4922 9.04973 10.5371L0.853924 10.6808C0.559271 10.6859 0.324654 10.9256 0.329893 11.2161C0.335131 11.5065 0.578239 11.7378 0.872894 11.7326L9.0687 11.589Z" fill="white"/>
<path fill-rule="evenodd" clip-rule="evenodd" d="M9.0687 15.7837C11.2912 15.7438 13.398 16.7823 14.7346 18.5767L16.3384 20.7298C16.5156 20.9677 16.8501 21.0154 17.0856 20.8364C17.321 20.6573 17.3683 20.3193 17.1911 20.0814L15.5873 17.9284C14.045 15.8579 11.6141 14.6596 9.04973 14.7056L0.853924 14.8528C0.559271 14.8581 0.324654 15.1037 0.329893 15.4014C0.335131 15.6991 0.578239 15.9362 0.872894 15.9309L9.0687 15.7837Z" fill="white"/>
<path fill-rule="evenodd" clip-rule="evenodd" d="M9.0687 20.3502C11.2912 20.3123 13.398 21.2963 14.7346 22.9962L16.3384 25.036C16.5156 25.2613 16.8501 25.3065 17.0856 25.1369C17.321 24.9673 17.3683 24.6471 17.1911 24.4217L15.5873 22.382C14.045 20.4205 11.6141 19.2852 9.04973 19.3289L0.853924 19.4683C0.559271 19.4733 0.324654 19.706 0.329893 19.988C0.335131 20.2701 0.578239 20.4946 0.872894 20.4896L9.0687 20.3502Z" fill="white"/>
<path fill-rule="evenodd" clip-rule="evenodd" d="M9.19288 24.6842C11.3587 24.6842 13.3985 25.679 14.7008 27.3702L16.3444 29.5046C16.5205 29.7333 16.8529 29.7792 17.0869 29.6071C17.3209 29.435 17.3678 29.11 17.1917 28.8814L15.5482 26.747C14.0455 24.7955 11.6918 23.6477 9.19288 23.6477H0.860073C0.567215 23.6477 0.329807 23.8797 0.329807 24.166C0.329807 24.4522 0.567215 24.6842 0.860073 24.6842H9.19288Z" fill="white"/>
<path fill-rule="evenodd" clip-rule="evenodd" d="M7.18176 28.0541C9.0654 28.0541 10.807 29.0509 11.7542 30.6712L12.6629 30.1451C11.5274 28.2027 9.43973 27.0078 7.18176 27.0078H0.854699C0.564395 27.0078 0.329056 27.242 0.329056 27.5309C0.329056 27.8199 0.564395 28.0541 0.854699 28.0541H7.18176Z" fill="white"/>
<path fill-rule="evenodd" clip-rule="evenodd" d="M33 3.51172H23.3635C19.3142 3.51172 16.0315 6.79981 16.0315 10.8559V30.9999H31.4288C32.2966 30.9999 33 30.2953 33 29.4261V3.51172ZM31.9526 4.56089V29.4261C31.9526 29.7158 31.7181 29.9507 31.4288 29.9507H17.0789V10.8559C17.0789 7.37925 19.8926 4.56089 23.3635 4.56089H31.9526Z" fill="white"/>
<path fill-rule="evenodd" clip-rule="evenodd" d="M0 3.51172H9.82343C13.9514 3.51172 17.2978 6.79981 17.2978 10.8559V30.9999H1.60165C0.717081 30.9999 0 30.2953 0 29.4261V3.51172ZM1.06776 4.56089V29.4261C1.06776 29.7158 1.30679 29.9507 1.60165 29.9507H16.23V10.8559C16.23 7.37925 13.3617 4.56089 9.82343 4.56089H1.06776Z" fill="white"/>
<path fill-rule="evenodd" clip-rule="evenodd" d="M19.8507 2.43976C19.1514 3.64649 17.8259 5.18572 16.8349 6.22454C16.7076 6.35798 16.5168 6.41762 16.3322 6.38176C16.1475 6.34589 15.9959 6.21975 15.9326 6.04929C15.6423 5.2684 15.4024 4.03706 15.6575 2.87231C15.7866 2.28255 16.0462 1.69519 16.5056 1.19867C16.9679 0.699045 17.6087 0.317251 18.4546 0.108259C18.8597 0.00817597 19.2356 -0.0342095 19.5541 0.0316627C19.9145 0.106205 20.2028 0.32461 20.3139 0.677968C20.4071 0.974814 20.3491 1.29186 20.2638 1.55635C20.174 1.83492 20.0269 2.13564 19.8507 2.43976ZM19.2853 1.0353C19.1924 1.02687 19.0163 1.03586 18.7223 1.10851C18.0633 1.27132 17.6159 1.55309 17.3089 1.88486C16.9991 2.21973 16.8086 2.6316 16.7093 3.08495C16.5844 3.65542 16.6097 4.26765 16.7057 4.80909C17.5343 3.88464 18.4133 2.79725 18.9116 1.93734C19.069 1.66568 19.1778 1.43451 19.2371 1.25075C19.2664 1.1597 19.2804 1.09001 19.285 1.03968C19.2851 1.03819 19.2852 1.03673 19.2853 1.0353Z" fill="white"/>
</svg>
