<svg width="22" height="22" viewBox="0 0 22 22" fill="none" xmlns="http://www.w3.org/2000/svg">
<g clip-path="url(#clip0_4_418)">
<path d="M7.81006 14.2114V22.0001H17.1549C17.638 22.0001 18.1034 21.9286 18.5429 21.798L7.81006 14.2114Z" fill="#E4E1DA"/>
<path d="M6.10352e-05 8.69092V17.1549C6.10352e-05 19.2653 1.33635 21.0515 3.21205 21.719V10.9614L6.10352e-05 8.69092Z" fill="#FFCCD5"/>
<path d="M3.212 0.280762C1.84488 0.76732 0.764947 1.8484 0.27948 3.21587L3.212 5.28868V0.280762Z" fill="#E4E1DA"/>
<path d="M7.81006 0V8.53909L21.8252 18.4458C21.9382 18.035 22 17.6025 22 17.1548V12.3001C19.3577 12.2967 17.367 11.5585 15.954 10.7523C15.2459 10.3484 14.682 9.9276 14.2514 9.57652C13.8208 9.22545 13.5085 8.93595 13.3711 8.8354C12.4975 8.19652 11.6326 6.93929 10.9514 5.37556C10.2702 3.81184 9.7892 1.94283 9.7892 0.0934976C9.7892 0.0620671 9.79053 0.031231 9.79086 0H7.81006Z" fill="#9DDF7B"/>
<path d="M0.402929 2.9043C0.14435 3.49811 6.10352e-05 4.15396 6.10352e-05 4.84511V9.08991L18.127 21.903C20.0356 21.5172 21.5298 20.0164 21.907 18.1046L0.402929 2.9043Z" fill="#FCAB1A"/>
<path d="M0.279524 3.21631C0.0989826 3.7251 6.10352e-05 4.27312 6.10352e-05 4.84534V8.69104L18.5436 21.7986C20.1391 21.325 21.3847 20.0559 21.8259 18.4465L0.279524 3.21631Z" fill="#FFD634"/>
<path opacity="0.125" d="M4.84525 0C4.13415 0 3.4606 0.153036 2.85339 0.425903V21.5741C3.4606 21.847 4.13415 22 4.84525 22H8.16879V0H4.84525Z" fill="black"/>
<path d="M4.84525 0C4.2715 0 3.72204 0.0993774 3.2121 0.280843V21.7192C3.72204 21.9006 4.2715 22 4.84525 22H7.81008V0H4.84525Z" fill="white"/>
<path d="M9.79073 0C9.79039 0.031231 9.78906 0.0620604 9.78906 0.0934976C9.78906 1.94283 10.2701 3.81184 10.9513 5.37556C11.6325 6.93929 12.4974 8.19653 13.3709 8.83541C13.5084 8.93595 13.8207 9.22545 14.2513 9.57653C14.6818 9.9276 15.2458 10.3484 15.9539 10.7523C17.3669 11.5585 19.3575 12.2968 21.9999 12.3001V11.6251C19.4827 11.6218 17.6191 10.9257 16.2883 10.1664C15.6214 9.78589 15.0888 9.38904 14.6773 9.05351C14.2659 8.71798 13.9906 8.45183 13.7698 8.29039C13.0751 7.78226 12.2184 6.59499 11.5697 5.10589C10.921 3.61678 10.464 1.825 10.464 0.0934976C10.464 0.0620338 10.465 0.0312011 10.4657 0H9.79073Z" fill="#90C36C"/>
<path d="M10.1281 0C10.1278 0.0311312 10.1265 0.0619544 10.1265 0.0933251C10.1265 3.67415 12.002 7.41579 13.5703 8.56281C14.2859 9.08616 16.8346 11.9559 21.9999 11.9625V4.84515C21.9999 2.16089 19.839 0 17.1548 0H10.1281Z" fill="#F4EFEB"/>
<path d="M14.7768 0C14.8359 2.28999 15.4096 3.87654 16.8192 5.19888C17.4947 5.83262 18.1506 6.38171 19.113 6.75331C19.854 7.0394 20.7639 7.2187 22 7.28629V6.51062C20.8435 6.44398 20.0275 6.27592 19.3916 6.0304C18.5554 5.70753 18.0054 5.24996 17.3485 4.63375C16.0841 3.44752 15.6021 2.15652 15.5504 0H14.7768Z" fill="#90C36C"/>
<path d="M15.1636 0C15.2191 2.22337 15.747 3.66197 17.0839 4.91614C18.2599 6.01937 19.2401 6.74363 22 6.89854V4.84515C22 2.16089 19.8392 0 17.1549 0H15.1636Z" fill="#9DDF7B"/>
<path d="M4.84522 0C4.61872 0 4.3964 0.0166287 4.17834 0.0464062V9.45897C4.61342 9.297 5.0738 9.21361 5.53804 9.21267C5.98313 9.21431 6.42468 9.29173 6.84377 9.44161V0H4.84522Z" fill="#3394E3"/>
<path d="M16.56 13.9498C16.4974 13.9518 16.4361 13.9705 16.3833 14.0043C15.8284 14.3585 15.1894 14.5465 14.537 14.5474C14.0625 14.5471 13.5924 14.4474 13.156 14.2551C12.9866 14.1804 12.7844 14.255 12.7033 14.4214C12.4196 15.0037 12.2713 15.6428 12.2693 16.2904V16.2916C12.2696 18.6605 14.1968 20.5881 16.5658 20.5881C18.935 20.5881 20.863 18.6603 20.863 16.2911C20.863 16.2909 20.863 16.2906 20.863 16.2904C20.862 15.6414 20.7137 15.001 20.4297 14.4175C20.3485 14.2508 20.1452 14.1769 19.9756 14.252C19.5399 14.4453 19.0709 14.5458 18.5965 14.5474C17.9469 14.5447 17.3106 14.3571 16.7581 14.0045C16.7287 13.9856 16.6926 13.9863 16.6593 13.9771C16.6297 13.9582 16.5951 13.9487 16.56 13.9498V13.9498Z" fill="#0078D9"/>
<path d="M16.5654 14.1235C16.534 14.1245 16.5036 14.134 16.4772 14.1509C15.8945 14.5228 15.2226 14.7201 14.5367 14.721C14.038 14.7206 13.5445 14.6163 13.0861 14.4143C13.0449 14.3962 12.9983 14.3947 12.9561 14.4102C12.9139 14.4257 12.8793 14.4569 12.8596 14.4974C12.5874 15.056 12.445 15.6689 12.4431 16.2904C12.4431 16.2906 12.4431 16.2908 12.4431 16.2911C12.4431 18.5661 14.2911 20.414 16.5661 20.414C18.841 20.414 20.689 18.5661 20.689 16.2911C20.689 16.2909 20.689 16.2908 20.689 16.2907C20.688 15.668 20.5457 15.0537 20.2732 14.4938C20.2535 14.4533 20.2188 14.422 20.1765 14.4066C20.1342 14.3911 20.0875 14.3927 20.0463 14.4109C19.5882 14.6141 19.0947 14.7197 18.5957 14.7212C17.913 14.7185 17.2445 14.5213 16.6645 14.151C16.635 14.1321 16.6004 14.1226 16.5654 14.1237V14.1235Z" fill="white"/>
<path d="M16.5709 14.2974C15.9605 14.687 15.2558 14.894 14.5366 14.8948C14.0137 14.8944 13.4964 14.7851 13.016 14.5734C12.8487 14.9181 12.7324 15.2854 12.6709 15.6636H20.459C20.3988 15.2842 20.2835 14.9157 20.1168 14.5696C19.6366 14.7827 19.1191 14.8933 18.5958 14.8948C17.8797 14.8922 17.1786 14.6853 16.5709 14.2974Z" fill="#DE1C25"/>
<path d="M12.6387 15.9385C12.6262 16.0555 12.619 16.173 12.617 16.2906C12.617 17.338 13.0331 18.3424 13.7736 19.083C14.5142 19.8236 15.5187 20.2397 16.566 20.2397C17.0846 20.2397 17.5981 20.1375 18.0772 19.9391C18.5563 19.7406 18.9917 19.4497 19.3584 19.083C19.7251 18.7163 20.0159 18.281 20.2144 17.8019C20.4128 17.3228 20.515 16.8092 20.515 16.2906C20.5142 16.173 20.5081 16.0555 20.4968 15.9385H12.6387Z" fill="#0078D9"/>
<path d="M15.4291 18.2269V18.6123H13.8024C13.82 18.4666 13.8729 18.3288 13.961 18.1989C14.049 18.068 14.223 17.8947 14.4828 17.6792C14.692 17.5049 14.8202 17.3868 14.8676 17.3248C14.9314 17.2392 14.9634 17.1545 14.9634 17.0709C14.9634 16.9784 14.9353 16.9075 14.8791 16.8583C14.8241 16.8081 14.7476 16.783 14.6496 16.783C14.5527 16.783 14.4757 16.8091 14.4184 16.8612C14.3612 16.9134 14.3281 17 14.3193 17.1211L13.8569 17.0797C13.8844 16.8514 13.9709 16.6875 14.1162 16.5881C14.2615 16.4887 14.4432 16.439 14.6612 16.439C14.9001 16.439 15.0878 16.4965 15.2243 16.6117C15.3608 16.7269 15.4291 16.8701 15.4291 17.0413C15.4291 17.1388 15.4092 17.2318 15.3696 17.3204C15.3311 17.408 15.2694 17.5 15.1847 17.5965C15.1285 17.6605 15.0272 17.7525 14.8808 17.8726C14.7344 17.9927 14.6413 18.0724 14.6017 18.1118C14.5632 18.1511 14.5318 18.1895 14.5076 18.2269H15.4291Z" fill="white"/>
<path d="M16.1424 17.4444C16.0224 17.3991 15.9349 17.3371 15.8799 17.2584C15.8259 17.1787 15.799 17.0915 15.799 16.9971C15.799 16.8356 15.8617 16.7023 15.9872 16.5969C16.1138 16.4916 16.2933 16.439 16.5256 16.439C16.7557 16.439 16.934 16.4916 17.0606 16.5969C17.1883 16.7023 17.2522 16.8356 17.2522 16.9971C17.2522 17.0975 17.223 17.187 17.1647 17.2658C17.1063 17.3435 17.0243 17.4031 16.9186 17.4444C17.0529 17.4926 17.1548 17.563 17.2241 17.6555C17.2946 17.7481 17.3298 17.8549 17.3298 17.9759C17.3298 18.1757 17.2582 18.3381 17.1151 18.4631C16.9731 18.5882 16.7837 18.6507 16.547 18.6507C16.3269 18.6507 16.1435 18.599 15.9971 18.4956C15.8243 18.3736 15.7379 18.2062 15.7379 17.9936C15.7379 17.8765 15.7703 17.7692 15.8353 17.6718C15.9002 17.5734 16.0026 17.4976 16.1424 17.4444ZM16.2382 17.0266C16.2382 17.1093 16.2641 17.1737 16.3158 17.22C16.3687 17.2663 16.4386 17.2894 16.5256 17.2894C16.6136 17.2894 16.6841 17.2663 16.737 17.22C16.7898 17.1727 16.8162 17.1078 16.8162 17.0251C16.8162 16.9473 16.7898 16.8853 16.737 16.8391C16.6852 16.7918 16.6164 16.7682 16.5305 16.7682C16.4414 16.7682 16.3703 16.7918 16.3175 16.8391C16.2647 16.8863 16.2382 16.9488 16.2382 17.0266ZM16.1953 17.9538C16.1953 18.068 16.2278 18.157 16.2927 18.221C16.3588 18.285 16.4408 18.317 16.5388 18.317C16.6346 18.317 16.7138 18.2865 16.7766 18.2254C16.8393 18.1634 16.8707 18.0744 16.8707 17.9582C16.8707 17.8568 16.8388 17.7756 16.7749 17.7146C16.7111 17.6526 16.6302 17.6216 16.5322 17.6216C16.4188 17.6216 16.334 17.6565 16.2779 17.7264C16.2228 17.7963 16.1953 17.8721 16.1953 17.9538Z" fill="white"/>
<path d="M18.4115 16.439C18.646 16.439 18.8293 16.5138 18.9614 16.6634C19.1188 16.8406 19.1976 17.1344 19.1976 17.5448C19.1976 17.9543 19.1183 18.2486 18.9598 18.4277C18.8288 18.5754 18.646 18.6492 18.4115 18.6492C18.1759 18.6492 17.986 18.5685 17.8418 18.407C17.6975 18.2446 17.6254 17.9557 17.6254 17.5404C17.6254 17.1329 17.7047 16.8396 17.8632 16.6604C17.9942 16.5128 18.177 16.439 18.4115 16.439ZM18.4115 16.783C18.3553 16.783 18.3053 16.7992 18.2612 16.8317C18.2172 16.8632 18.1831 16.9203 18.1588 17.003C18.1269 17.1102 18.1109 17.2909 18.1109 17.5448C18.1109 17.7988 18.1253 17.9735 18.1539 18.0689C18.1825 18.1634 18.2183 18.2264 18.2612 18.2579C18.3053 18.2894 18.3553 18.3052 18.4115 18.3052C18.4676 18.3052 18.5177 18.2894 18.5618 18.2579C18.6058 18.2254 18.6399 18.1679 18.6642 18.0852C18.6961 17.9789 18.7121 17.7988 18.7121 17.5448C18.7121 17.2909 18.6977 17.1166 18.6691 17.0222C18.6405 16.9267 18.6042 16.8632 18.5601 16.8317C18.5172 16.7992 18.4676 16.783 18.4115 16.783Z" fill="white"/>
<path d="M5.53817 17.0528C7.70323 17.0528 9.45836 15.2977 9.45836 13.1326C9.45836 10.9675 7.70323 9.2124 5.53817 9.2124C3.37311 9.2124 1.61798 10.9675 1.61798 13.1326C1.61798 15.2977 3.37311 17.0528 5.53817 17.0528Z" fill="#0179DA"/>
<path d="M5.52114 10.7006C5.51848 10.7008 5.51579 10.7016 5.51306 10.702C5.50601 10.7026 5.49912 10.704 5.4921 10.7054C5.48203 10.7074 5.47209 10.7093 5.46237 10.7124C5.46005 10.7131 5.45795 10.7131 5.45586 10.7141C5.45243 10.7154 5.44943 10.7171 5.44607 10.7186C5.43603 10.7225 5.42632 10.7269 5.41684 10.7321C5.41069 10.7355 5.4049 10.7391 5.39915 10.743C5.3921 10.7476 5.38538 10.7524 5.37886 10.7577C5.37201 10.7633 5.36562 10.7692 5.35943 10.7754C5.35434 10.7806 5.34949 10.7859 5.34484 10.7916C5.33875 10.7989 5.33332 10.8064 5.32817 10.8143C5.32454 10.8198 5.32105 10.8253 5.31786 10.8311C5.31277 10.8403 5.30851 10.8499 5.30462 10.8596C5.30329 10.8632 5.30113 10.8663 5.2998 10.87L4.94248 11.904C4.94148 11.9053 4.94114 11.9066 4.94048 11.9081L4.67322 12.6817L4.49241 13.2047V13.2049L3.79957 15.2103C3.75816 15.3015 3.77343 15.412 3.84735 15.4888C3.88903 15.532 3.94232 15.5562 3.99741 15.5632C3.99741 15.5632 3.9984 15.5634 3.9984 15.5634C4.01307 15.565 4.02767 15.5657 4.0424 15.565C4.04673 15.5648 4.05085 15.5643 4.0551 15.564C4.06568 15.563 4.07612 15.5614 4.08657 15.5589C4.09335 15.5572 4.09994 15.5554 4.10652 15.5534C4.11454 15.5507 4.12232 15.548 4.13007 15.5446C4.13879 15.5409 4.14711 15.5365 4.15536 15.5319C4.16001 15.5292 4.16473 15.5265 4.16929 15.5235C4.1805 15.5161 4.19081 15.5077 4.20076 15.4986C4.20175 15.4976 4.20308 15.4969 4.20438 15.4959L4.21865 15.4823V15.4817L5.53813 14.2115L6.85761 15.4817C6.85894 15.483 6.86026 15.484 6.86139 15.4855L6.8722 15.4958C6.8732 15.4968 6.87454 15.4974 6.87584 15.4984C6.88578 15.5075 6.89612 15.516 6.90729 15.5233C6.91188 15.5263 6.9165 15.529 6.92123 15.5318C6.92941 15.5364 6.9378 15.5407 6.94651 15.5445C6.95426 15.5479 6.96208 15.5506 6.97006 15.5532C6.97665 15.5552 6.98323 15.5572 6.98998 15.5587C7.00029 15.5611 7.0106 15.5628 7.02107 15.5639C7.02546 15.5642 7.02972 15.5649 7.03415 15.5649C7.04888 15.5655 7.06352 15.5651 7.07815 15.5632C7.07815 15.5632 7.07914 15.563 7.07914 15.563C7.13423 15.556 7.18752 15.5319 7.22919 15.4886C7.30312 15.4118 7.31839 15.3014 7.27698 15.2102L6.1359 11.9079C6.1359 11.907 6.13491 11.906 6.13457 11.905L5.77689 10.8699C5.77556 10.8658 5.77308 10.8624 5.77141 10.8584C5.76779 10.8494 5.76383 10.8405 5.7592 10.8319C5.75578 10.8257 5.75208 10.8198 5.74819 10.8139C5.74307 10.8062 5.73778 10.7988 5.73186 10.7917C5.72694 10.7858 5.72179 10.7803 5.7164 10.7749C5.71068 10.7691 5.70469 10.7636 5.69833 10.7584C5.69138 10.7526 5.68417 10.7475 5.67668 10.7426C5.67106 10.7389 5.66548 10.7354 5.65949 10.7321C5.65014 10.7269 5.64053 10.7226 5.63062 10.7187C5.6272 10.7174 5.6242 10.7153 5.62064 10.7141C5.61832 10.7134 5.61632 10.7131 5.61413 10.7124C5.60445 10.7094 5.59459 10.7072 5.58455 10.7054C5.5775 10.704 5.57059 10.7027 5.5636 10.7019C5.55532 10.7013 5.54694 10.7009 5.53849 10.7009C5.53287 10.7009 5.52709 10.6999 5.5215 10.7003L5.52114 10.7006Z" fill="white"/>
<path opacity="0.24" d="M21.8251 18.4458C21.8193 18.4672 21.8134 18.4885 21.8073 18.5097C21.8134 18.4886 21.82 18.4676 21.8258 18.4463L21.8251 18.4458Z" fill="black"/>
<path opacity="0.24" d="M21.8072 18.5098C21.8009 18.5317 21.7948 18.5536 21.7881 18.5754C21.7947 18.5537 21.8009 18.5317 21.8072 18.5098Z" fill="black"/>
<path opacity="0.24" d="M21.7882 18.5752C21.771 18.6318 21.7532 18.6881 21.7339 18.7438C21.7531 18.6881 21.771 18.6318 21.7882 18.5752Z" fill="black"/>
<path opacity="0.24" d="M4.61092 0.00585938C4.58534 0.00718977 4.56006 0.00925168 4.53461 0.0108481C4.56008 0.00918516 4.58534 0.00708999 4.61092 0.00585938Z" fill="black"/>
<path opacity="0.24" d="M4.38472 0.0219727C4.35007 0.0252986 4.31568 0.02919 4.28125 0.0331479C4.31565 0.02919 4.3501 0.0252321 4.38472 0.0219727Z" fill="black"/>
<path opacity="0.24" d="M4.16022 0.0488281C4.12399 0.0539169 4.08791 0.0592726 4.05194 0.0651596C4.0879 0.0592726 4.124 0.0539501 4.16022 0.0488281Z" fill="black"/>
<path opacity="0.24" d="M3.9387 0.0854492C3.90109 0.0925003 3.86357 0.0996832 3.82629 0.107632C3.86353 0.0996832 3.90113 0.0925336 3.9387 0.0854492Z" fill="black"/>
<path opacity="0.24" d="M3.72646 0.130371C3.68632 0.139784 3.64606 0.148995 3.60632 0.159405C3.64607 0.148962 3.68632 0.139817 3.72646 0.130371Z" fill="black"/>
<path opacity="0.24" d="M0.277424 3.22217C0.256138 3.2824 0.236057 3.34321 0.217102 3.40452C0.23606 3.34322 0.256144 3.2824 0.277424 3.22217Z" fill="black"/>
<path opacity="0.24" d="M0.214019 3.41504C0.195992 3.47387 0.178995 3.53315 0.163147 3.59292C0.179012 3.53317 0.195972 3.47385 0.214019 3.41504Z" fill="black"/>
<path opacity="0.24" d="M0.156731 3.61719C0.142363 3.67255 0.128959 3.7283 0.116516 3.78443C0.128989 3.72831 0.142326 3.67255 0.156731 3.61719Z" fill="black"/>
<path opacity="0.24" d="M0.108483 3.82092C0.0974079 3.8728 0.0872934 3.92501 0.0778809 3.9775C0.0873266 3.92505 0.0973746 3.87276 0.108483 3.82092Z" fill="black"/>
<path opacity="0.24" d="M0.0695977 4.02283C0.0605843 4.07591 0.052633 4.12934 0.0453491 4.18302C0.0526663 4.12935 0.060551 4.0759 0.0695977 4.02283Z" fill="black"/>
<path opacity="0.24" d="M0.039685 4.224C0.0328335 4.27784 0.0272113 4.33204 0.0221558 4.38642C0.0272445 4.33204 0.0328335 4.27783 0.039685 4.224Z" fill="black"/>
<path opacity="0.24" d="M0.0178914 4.43005C0.0135676 4.48077 0.0104123 4.53186 0.00775146 4.58302C0.0104123 4.53184 0.0135676 4.48078 0.0178914 4.43005Z" fill="black"/>
<path opacity="0.24" d="M0.00449649 4.63965C0.00183571 4.70784 0 4.77629 0 4.84521C0 4.77633 0.00166941 4.7078 0.00449649 4.63965Z" fill="black"/>
<path opacity="0.24" d="M18.5429 21.798L18.5439 21.7987C18.5902 21.7849 18.6362 21.7704 18.6819 21.7554C18.6361 21.7705 18.5896 21.7844 18.5432 21.7982L18.5429 21.798Z" fill="black"/>
<path opacity="0.24" d="M20.1588 20.96C20.0841 21.0189 20.0078 21.0759 19.9296 21.1305C20.0078 21.0759 20.0841 21.0189 20.1588 20.96Z" fill="black"/>
<path opacity="0.24" d="M19.9213 21.1367C19.8826 21.1636 19.8435 21.1897 19.8041 21.2154C19.8435 21.1897 19.8826 21.1636 19.9213 21.1367Z" fill="black"/>
<path opacity="0.24" d="M19.7792 21.231C19.7021 21.2805 19.6235 21.328 19.5435 21.3733C19.6236 21.328 19.7021 21.2806 19.7792 21.231Z" fill="black"/>
<path opacity="0.24" d="M19.5331 21.3794C19.4901 21.4035 19.4469 21.427 19.4031 21.4499C19.4469 21.427 19.4901 21.4035 19.5331 21.3794Z" fill="black"/>
<path opacity="0.24" d="M19.394 21.4547C19.3116 21.4976 19.2277 21.5381 19.1426 21.5762C19.2277 21.5381 19.3116 21.4976 19.394 21.4547Z" fill="black"/>
<path opacity="0.24" d="M3.60632 21.8408C3.64606 21.8512 3.68632 21.8604 3.72646 21.8699C3.68632 21.8604 3.64607 21.8512 3.60632 21.8408Z" fill="black"/>
<path opacity="0.24" d="M3.82629 21.8927C3.86357 21.9006 3.90109 21.9078 3.9387 21.9149C3.90113 21.9078 3.86353 21.9006 3.82629 21.8927Z" fill="black"/>
<path opacity="0.24" d="M4.05194 21.9351C4.08791 21.9409 4.12399 21.9463 4.16022 21.9514C4.124 21.9463 4.0879 21.941 4.05194 21.9351Z" fill="black"/>
<path opacity="0.24" d="M4.28125 21.9668C4.31568 21.9708 4.35007 21.9747 4.38472 21.978C4.3501 21.9746 4.31565 21.9708 4.28125 21.9668Z" fill="black"/>
<path opacity="0.24" d="M4.53461 21.9888C4.56005 21.9904 4.58535 21.9925 4.61092 21.9938C4.58534 21.9924 4.56007 21.9904 4.53461 21.9888Z" fill="black"/>
</g>
<defs>
<clipPath id="clip0_4_418">
<rect width="22" height="22" fill="white"/>
</clipPath>
</defs>
</svg>
