<svg width="22" height="22" viewBox="0 0 22 22" fill="none" xmlns="http://www.w3.org/2000/svg">
<path d="M20.9438 15.956V18.956C20.9449 19.2345 20.8879 19.5102 20.7763 19.7653C20.6647 20.0205 20.5011 20.2496 20.2959 20.4379C20.0906 20.6261 19.8484 20.7695 19.5845 20.8587C19.3207 20.9479 19.0412 20.9811 18.7638 20.956C15.6866 20.6216 12.7308 19.5701 10.1338 17.886C7.71761 16.3507 5.66912 14.3022 4.13378 11.886C2.44376 9.27719 1.39202 6.30698 1.06378 3.21599C1.03879 2.93945 1.07166 2.66075 1.16028 2.39761C1.24891 2.13447 1.39135 1.89267 1.57855 1.68761C1.76574 1.48254 1.99359 1.31869 2.24757 1.20651C2.50156 1.09432 2.77612 1.03625 3.05378 1.03599H6.05378C6.53909 1.03121 7.00957 1.20306 7.37754 1.51952C7.74551 1.83597 7.98586 2.27543 8.05378 2.75599C8.1804 3.71605 8.41523 4.65871 8.75378 5.56599C8.88832 5.92391 8.91744 6.3129 8.83769 6.68687C8.75793 7.06083 8.57264 7.4041 8.30378 7.67599L7.03378 8.94599C8.45734 11.4495 10.5302 13.5224 13.0338 14.946L14.3038 13.676C14.5757 13.4071 14.9189 13.2218 15.2929 13.1421C15.6669 13.0623 16.0559 13.0914 16.4138 13.226C17.3211 13.5645 18.2637 13.7994 19.2238 13.926C19.7095 13.9945 20.1532 14.2392 20.4703 14.6135C20.7874 14.9878 20.9559 15.4656 20.9438 15.956Z" stroke="black" stroke-width="2" stroke-linecap="round" stroke-linejoin="round"/>
</svg>
