<svg width="213" height="54" viewBox="0 0 213 54" fill="none" xmlns="http://www.w3.org/2000/svg">
<path d="M199.879 0.397888H13.1208C6.09398 0.397888 0.397614 6.09848 0.397614 13.1305V40.8695C0.397614 47.9015 6.09398 53.6021 13.1208 53.6021H199.879C206.906 53.6021 212.602 47.9015 212.602 40.8695V13.1305C212.602 6.09848 206.906 0.397888 199.879 0.397888Z" fill="white" stroke="#9AA0A6" stroke-width="0.56"/>
<path d="M12.3141 24.3133C11.1 24.3133 10.1175 25.2965 10.1175 26.5115V28.9095C10.1175 30.1245 11.1 31.1077 12.3141 31.1077C13.5282 31.1077 14.5106 30.1245 14.5106 28.9095V26.5115C14.5106 25.2965 13.5282 24.3133 12.3141 24.3133Z" fill="#0066D9"/>
<path d="M43.0659 24.3133C41.8518 24.3133 40.8694 25.2965 40.8694 26.5115V28.9095C40.8694 30.1245 41.8518 31.1077 43.0659 31.1077C44.28 31.1077 45.2625 30.1245 45.2625 28.9095V26.5115C45.2625 25.2965 44.28 24.3133 43.0659 24.3133Z" fill="#4285F4"/>
<path d="M19.9022 31.5074C18.6881 31.5074 17.7056 32.4906 17.7056 33.7056V36.1036C17.7056 37.3186 18.6881 38.3018 19.9022 38.3018C21.1163 38.3018 22.0988 37.3186 22.0988 36.1036V33.7056C22.0988 32.4906 21.1163 31.5074 19.9022 31.5074Z" fill="#EA4335"/>
<path d="M19.9022 17.1193C18.6881 17.1193 17.7056 18.1025 17.7056 19.3175V27.161H17.7076C17.7356 28.352 18.7061 29.3092 19.9022 29.3092C21.0983 29.3092 22.0688 28.352 22.0968 27.161H22.0988V19.3175C22.0988 18.1025 21.1163 17.1193 19.9022 17.1193Z" fill="#EA4335"/>
<path d="M35.4778 17.1193C34.2637 17.1193 33.2812 18.1025 33.2812 19.3175V21.7155C33.2812 22.9305 34.2637 23.9137 35.4778 23.9137C36.6919 23.9137 37.6744 22.9305 37.6744 21.7155V19.3175C37.6744 18.1025 36.6919 17.1193 35.4778 17.1193Z" fill="#34A853"/>
<path d="M27.69 10.125C26.4759 10.125 25.4934 11.1082 25.4934 12.3232V14.7212C25.4934 15.9362 26.4759 16.9194 27.69 16.9194C28.9041 16.9194 29.8866 15.9362 29.8866 14.7212V12.3232C29.8866 11.1082 28.9041 10.125 27.69 10.125Z" fill="#FAB908"/>
<path d="M27.69 38.5016C26.4759 38.5016 25.4934 39.4848 25.4934 40.6998V43.0979C25.4934 44.3129 26.4759 45.2961 27.69 45.2961C28.9041 45.2961 29.8866 44.3129 29.8866 43.0979V40.6998C29.8866 39.4848 28.9041 38.5016 27.69 38.5016Z" fill="#FAB908"/>
<path d="M35.4778 26.1118C34.2637 26.1118 33.2812 27.095 33.2812 28.31V36.1036C33.2812 37.3186 34.2637 38.3018 35.4778 38.3018C36.6919 38.3018 37.6744 37.3186 37.6744 36.1036V28.31C37.6744 27.095 36.6919 26.1118 35.4778 26.1118Z" fill="#34A853"/>
<path d="M29.8866 21.3158C29.8866 20.1008 28.9041 19.1176 27.69 19.1176C26.4759 19.1176 25.4934 20.1008 25.4934 21.3158V26.6454V28.7777V34.1053C25.4934 35.3203 26.4759 36.3035 27.69 36.3035C28.9041 36.3035 29.8866 35.3203 29.8866 34.1053V28.7757V26.6454V21.3158Z" fill="#FAB908"/>
<path d="M126.868 41.2958V35.4865H129.99C130.785 35.4865 131.52 35.3075 132.196 34.9494C132.872 34.5913 133.412 34.0906 133.817 33.4473C134.221 32.804 134.423 32.0779 134.423 31.2688C134.423 30.4598 134.221 29.7336 133.817 29.0904C133.412 28.4471 132.872 27.9464 132.196 27.5883C131.52 27.2302 130.785 27.0511 129.99 27.0511H125.199V41.2958H126.868ZM130.029 33.875H126.868V28.6626H130.029C130.56 28.6626 131.027 28.7886 131.431 29.0406C131.835 29.2926 132.15 29.6176 132.375 30.0155C132.601 30.4134 132.713 30.8311 132.713 31.2688C132.713 31.7065 132.601 32.1243 132.375 32.5222C132.15 32.9201 131.835 33.245 131.431 33.497C131.027 33.749 130.56 33.875 130.029 33.875ZM140.009 41.6141C141.003 41.6141 141.898 41.3754 142.693 40.8979C143.488 40.4204 144.108 39.7705 144.552 38.9482C144.996 38.1259 145.218 37.2174 145.218 36.2226C145.218 35.2279 144.996 34.3194 144.552 33.497C144.108 32.6747 143.488 32.0248 142.693 31.5474C141.898 31.0699 141.003 30.8311 140.009 30.8311C139.015 30.8311 138.121 31.0699 137.325 31.5474C136.53 32.0248 135.911 32.6747 135.467 33.497C135.023 34.3194 134.801 35.2279 134.801 36.2226C134.801 37.2174 135.023 38.1259 135.467 38.9482C135.911 39.7705 136.53 40.4204 137.325 40.8979C138.121 41.3754 139.015 41.6141 140.009 41.6141ZM140.009 40.0822C139.386 40.0822 138.803 39.9264 138.26 39.6147C137.716 39.303 137.282 38.8554 136.958 38.2718C136.633 37.6882 136.471 37.0051 136.471 36.2226C136.471 35.4401 136.633 34.757 136.958 34.1735C137.282 33.5899 137.716 33.1423 138.26 32.8306C138.803 32.5189 139.386 32.363 140.009 32.363C140.632 32.363 141.212 32.5189 141.749 32.8306C142.285 33.1423 142.716 33.5899 143.041 34.1735C143.366 34.757 143.528 35.4401 143.528 36.2226C143.528 37.0051 143.366 37.6882 143.041 38.2718C142.716 38.8554 142.285 39.303 141.749 39.6147C141.212 39.9264 140.632 40.0822 140.009 40.0822ZM151.202 41.6141C151.984 41.6141 152.679 41.4384 153.289 41.0869C153.899 40.7354 154.363 40.3077 154.681 39.8037H154.76V41.2958H156.37V27.0511H154.681V31.2489L154.76 32.6615H154.681C154.363 32.1442 153.899 31.7098 153.289 31.3584C152.679 31.0069 151.984 30.8311 151.202 30.8311C150.3 30.8311 149.482 31.0633 148.746 31.5275C148.011 31.9917 147.431 32.6349 147.007 33.4573C146.583 34.2796 146.371 35.2014 146.371 36.2226C146.371 37.2571 146.583 38.1823 147.007 38.9979C147.431 39.8136 148.011 40.4536 148.746 40.9178C149.482 41.382 150.3 41.6141 151.202 41.6141ZM151.4 40.0822C150.817 40.0822 150.267 39.923 149.75 39.6047C149.233 39.2864 148.819 38.8321 148.508 38.2419C148.196 37.6517 148.041 36.9786 148.041 36.2226C148.041 35.4666 148.196 34.7935 148.508 34.2033C148.819 33.6131 149.233 33.1588 149.75 32.8405C150.267 32.5222 150.817 32.363 151.4 32.363C151.997 32.363 152.55 32.5222 153.06 32.8405C153.571 33.1588 153.981 33.6098 154.293 34.1934C154.604 34.7769 154.76 35.4534 154.76 36.2226C154.76 36.9919 154.604 37.6683 154.293 38.2519C153.981 38.8355 153.571 39.2864 153.06 39.6047C152.55 39.923 151.997 40.0822 151.4 40.0822ZM163.09 41.6141C164.177 41.6141 165.101 41.3555 165.863 40.8382C166.625 40.3209 167.178 39.6445 167.523 38.8089L166.012 38.1723C165.76 38.7824 165.376 39.2533 164.859 39.5848C164.342 39.9164 163.726 40.0822 163.01 40.0822C162.414 40.0822 161.857 39.9197 161.34 39.5948C160.824 39.2698 160.409 38.8156 160.098 38.232C159.786 37.6484 159.631 36.9786 159.631 36.2226C159.631 35.4666 159.786 34.7968 160.098 34.2133C160.409 33.6297 160.824 33.1754 161.34 32.8505C161.857 32.5255 162.414 32.363 163.01 32.363C163.713 32.363 164.312 32.5255 164.809 32.8505C165.306 33.1754 165.681 33.6496 165.933 34.2729L167.463 33.6363C167.145 32.7875 166.612 32.1077 165.863 31.5971C165.114 31.0865 164.19 30.8311 163.09 30.8311C162.109 30.8311 161.228 31.0633 160.446 31.5275C159.664 31.9917 159.054 32.6349 158.617 33.4573C158.179 34.2796 157.961 35.2014 157.961 36.2226C157.961 37.2439 158.179 38.1624 158.617 38.978C159.054 39.7937 159.664 40.437 160.446 40.9078C161.228 41.3787 162.109 41.6141 163.09 41.6141ZM172.215 41.6141C172.944 41.6141 173.6 41.4417 174.183 41.0968C174.766 40.752 175.203 40.3342 175.495 39.8435H175.574V41.2958H177.185V34.8698C177.185 33.623 176.79 32.6383 176.002 31.9154C175.213 31.1926 174.13 30.8311 172.752 30.8311C171.903 30.8311 171.131 31.0036 170.436 31.3484C169.74 31.6933 169.193 32.1707 168.795 32.7808L170.068 33.7358C170.346 33.2981 170.724 32.9566 171.201 32.7112C171.678 32.4658 172.202 32.3431 172.771 32.3431C173.58 32.3431 174.249 32.5719 174.779 33.0295C175.309 33.4871 175.574 34.0939 175.574 34.8499V35.4666C175.296 35.2942 174.895 35.1417 174.372 35.009C173.848 34.8764 173.282 34.8101 172.672 34.8101C171.439 34.8101 170.419 35.1118 169.61 35.7153C168.802 36.3188 168.398 37.1577 168.398 38.232C168.398 38.8819 168.557 39.4621 168.875 39.9728C169.193 40.4834 169.644 40.8846 170.227 41.1764C170.81 41.4682 171.473 41.6141 172.215 41.6141ZM172.374 40.122C171.724 40.122 171.188 39.9496 170.764 39.6047C170.339 39.2599 170.127 38.8089 170.127 38.2519C170.127 37.6418 170.363 37.1444 170.833 36.7598C171.304 36.3751 172.003 36.1828 172.93 36.1828C173.447 36.1828 173.938 36.2491 174.402 36.3818C174.865 36.5144 175.256 36.6868 175.574 36.899C175.574 37.4826 175.429 38.0198 175.137 38.5105C174.846 39.0013 174.455 39.3925 173.964 39.6843C173.474 39.9761 172.944 40.122 172.374 40.122ZM182.692 41.6141C183.434 41.6141 184.11 41.4881 184.719 41.2361C185.329 40.9841 185.813 40.6227 186.171 40.1518C186.528 39.681 186.707 39.1339 186.707 38.5105C186.707 37.7943 186.455 37.1875 185.952 36.6901C185.448 36.1928 184.699 35.8181 183.705 35.5661L182.234 35.1881C181.651 35.0422 181.214 34.8532 180.922 34.6211C180.631 34.389 180.485 34.0873 180.485 33.7159C180.485 33.318 180.694 32.9897 181.111 32.7311C181.529 32.4725 182.016 32.3431 182.572 32.3431C183.725 32.3431 184.527 32.7941 184.978 33.696L186.449 33.0196C186.157 32.3299 185.664 31.7927 184.968 31.4081C184.272 31.0235 183.48 30.8311 182.592 30.8311C181.916 30.8311 181.287 30.9505 180.704 31.1893C180.12 31.428 179.653 31.7695 179.302 32.2138C178.951 32.6581 178.775 33.1721 178.775 33.7557C178.775 34.5117 179.034 35.1284 179.55 35.6059C180.067 36.0834 180.73 36.4216 181.538 36.6205L182.771 36.9388C183.54 37.1245 184.103 37.3467 184.461 37.6053C184.819 37.8639 184.998 38.2055 184.998 38.6299C184.998 39.1074 184.772 39.4754 184.322 39.734C183.871 39.9927 183.328 40.122 182.692 40.122C182.095 40.122 181.548 39.9562 181.051 39.6246C180.554 39.293 180.18 38.8222 179.928 38.2121L178.417 38.8885C178.722 39.6843 179.239 40.3375 179.968 40.8481C180.697 41.3588 181.605 41.6141 182.692 41.6141ZM192.075 41.4549C192.393 41.4549 192.655 41.435 192.86 41.3953C193.066 41.3555 193.268 41.2891 193.466 41.1963V39.545C193.109 39.7705 192.738 39.8833 192.353 39.8833C191.876 39.8833 191.512 39.7374 191.26 39.4456C191.048 39.1803 190.942 38.7691 190.942 38.2121V32.6814H193.407V31.1495H190.942V28.2846H189.252V31.1495H187.483V32.6814H189.252V38.6299C189.252 39.1074 189.318 39.5119 189.451 39.8435C189.583 40.175 189.782 40.4668 190.047 40.7188C190.286 40.9443 190.581 41.1234 190.932 41.256C191.283 41.3886 191.664 41.4549 192.075 41.4549ZM198.914 41.6141C199.656 41.6141 200.332 41.4881 200.941 41.2361C201.551 40.9841 202.035 40.6227 202.393 40.1518C202.75 39.681 202.929 39.1339 202.929 38.5105C202.929 37.7943 202.678 37.1875 202.174 36.6901C201.67 36.1928 200.921 35.8181 199.927 35.5661L198.456 35.1881C197.873 35.0422 197.436 34.8532 197.144 34.6211C196.853 34.389 196.707 34.0873 196.707 33.7159C196.707 33.318 196.916 32.9897 197.333 32.7311C197.751 32.4725 198.238 32.3431 198.794 32.3431C199.947 32.3431 200.749 32.7941 201.2 33.696L202.671 33.0196C202.379 32.3299 201.886 31.7927 201.19 31.4081C200.494 31.0235 199.702 30.8311 198.814 30.8311C198.138 30.8311 197.509 30.9505 196.926 31.1893C196.342 31.428 195.875 31.7695 195.524 32.2138C195.173 32.6581 194.997 33.1721 194.997 33.7557C194.997 34.5117 195.256 35.1284 195.773 35.6059C196.289 36.0834 196.952 36.4216 197.761 36.6205L198.993 36.9388C199.762 37.1245 200.325 37.3467 200.683 37.6053C201.041 37.8639 201.22 38.2055 201.22 38.6299C201.22 39.1074 200.994 39.4754 200.544 39.734C200.093 39.9927 199.55 40.122 198.914 40.122C198.317 40.122 197.771 39.9562 197.274 39.6246C196.777 39.293 196.402 38.8222 196.15 38.2121L194.639 38.8885C194.944 39.6843 195.461 40.3375 196.19 40.8481C196.919 41.3588 197.827 41.6141 198.914 41.6141Z" fill="#3C4043"/>
<path d="M100.282 30.9978C101.535 30.9978 102.524 31.5549 103.035 32.1738H103.112V31.3228H105.308V40.7153C105.308 44.5837 103.035 46.1621 100.344 46.1621C97.8083 46.1621 96.2776 44.46 95.7055 43.0673L97.7001 42.2317C98.0557 43.0828 98.9216 44.0886 100.329 44.0886C102.045 44.0886 103.112 43.0209 103.112 41.0248V40.2666H103.035C102.524 40.901 101.535 41.4581 100.282 41.4581C97.6692 41.4581 95.2725 39.168 95.2725 36.2434C95.2725 33.288 97.6692 30.9978 100.282 30.9978ZM77.6301 31.1526C80.5216 31.1526 82.8718 33.3498 82.8718 36.3827C82.8718 39.4001 80.5216 41.6128 77.6301 41.6128C74.7387 41.6128 72.3885 39.4001 72.3885 36.3827C72.3885 33.3498 74.7387 31.1526 77.6301 31.1526ZM89.0722 31.1526C91.9636 31.1526 94.3139 33.3498 94.3139 36.3827C94.3139 39.4001 91.9636 41.6128 89.0722 41.6128C86.1808 41.6128 83.8305 39.4001 83.8305 36.3827C83.8305 33.3498 86.1808 31.1526 89.0722 31.1526ZM115.203 31.1526C117.909 31.1526 119.239 33.3034 119.672 34.4794L119.904 35.0674L112.915 37.961C113.456 38.9977 114.276 39.5393 115.451 39.5393C116.626 39.5393 117.43 38.9668 118.033 38.1003L119.811 39.2917C119.224 40.1428 117.847 41.6128 115.451 41.6128C112.482 41.6128 110.271 39.3072 110.271 36.3827C110.271 33.2725 112.513 31.1526 115.203 31.1526ZM64.0852 25.2726C66.5592 25.2726 68.3219 26.2474 69.6516 27.5163L68.0745 29.0791C67.1313 28.1816 65.8479 27.4853 64.0852 27.4853C60.8227 27.4853 58.2714 30.1158 58.2714 33.3808C58.2714 36.6457 60.8227 39.2763 64.0852 39.2763C66.2036 39.2763 67.4096 38.4252 68.1827 37.6515C68.8167 37.0171 69.2342 36.1042 69.3888 34.8663H64.0852V32.6535H71.5535C71.6308 33.0558 71.6772 33.5201 71.6772 34.0462C71.6772 35.7173 71.2288 37.7753 69.7599 39.2298C68.3219 40.7153 66.4973 41.5045 64.0852 41.5045C59.6012 41.5045 55.8439 37.8682 55.8439 33.3963C55.8439 28.9089 59.6012 25.2726 64.0852 25.2726ZM109.158 25.8915V41.2569H106.869V25.8915H109.158ZM77.6301 33.1951C76.0375 33.1951 74.6769 34.4794 74.6769 36.3672C74.6769 38.2395 76.053 39.5393 77.6301 39.5393C79.2073 39.5393 80.5834 38.2395 80.5834 36.3672C80.5834 34.4794 79.2073 33.1951 77.6301 33.1951ZM89.0722 33.1951C87.4796 33.1951 86.1189 34.4794 86.1189 36.3672C86.1189 38.2395 87.495 39.5393 89.0722 39.5393C90.6493 39.5393 92.0255 38.2395 92.0255 36.3672C92.0255 34.4794 90.6648 33.1951 89.0722 33.1951ZM100.483 33.0558C98.9062 33.0558 97.5764 34.4021 97.5764 36.2434C97.5764 38.0693 98.9062 39.4001 100.483 39.4001C102.045 39.4001 103.282 38.0848 103.267 36.2434C103.267 34.4021 102.045 33.0558 100.483 33.0558ZM115.281 33.1642C114.106 33.1642 112.482 34.2009 112.544 36.2125L117.213 34.2783C116.966 33.6129 116.193 33.1642 115.281 33.1642Z" fill="#3C4043"/>
<path d="M62.7325 20.1789V19.0808H57.91V9.99529H56.5612V20.1789H62.7325ZM65.1871 11.3382C65.4387 11.3382 65.6297 11.2682 65.7602 11.1284C65.8906 10.9885 65.9559 10.8136 65.9559 10.6038C65.9559 10.394 65.8906 10.2168 65.7602 10.0722C65.6297 9.92768 65.4387 9.85541 65.1871 9.85541C64.9355 9.85541 64.7456 9.92768 64.6174 10.0722C64.4893 10.2168 64.4253 10.394 64.4253 10.6038C64.4253 10.8136 64.4893 10.9885 64.6174 11.1284C64.7456 11.2682 64.9355 11.3382 65.1871 11.3382ZM65.8231 20.1789V12.6111H64.5301V20.1789H65.8231ZM71.0313 20.3188C71.8933 20.3188 72.5945 20.1148 73.135 19.7068C73.6755 19.2988 73.9458 18.7567 73.9458 18.0806C73.9458 17.675 73.8491 17.3311 73.6557 17.049C73.4623 16.7669 73.1653 16.5256 72.7646 16.3251C72.3639 16.1246 71.8409 15.9521 71.1956 15.8075C70.5502 15.663 70.1041 15.5114 69.8571 15.3529C69.6102 15.1943 69.4867 14.9589 69.4867 14.6465C69.4867 14.3154 69.6195 14.0473 69.8851 13.8421C70.1507 13.637 70.5188 13.5344 70.9894 13.5344C71.446 13.5344 71.8246 13.6626 72.1251 13.9191C72.4256 14.1755 72.5759 14.4809 72.5759 14.8353H73.8759C73.8759 14.1452 73.6091 13.5787 73.0756 13.1357C72.5421 12.6927 71.8467 12.4713 70.9894 12.4713C70.174 12.4713 69.5042 12.6857 68.98 13.1147C68.4558 13.5437 68.1938 14.0683 68.1938 14.6884C68.1938 15.0615 68.2858 15.3832 68.4698 15.6536C68.6539 15.9241 68.9381 16.1572 69.3225 16.3531C69.7069 16.5489 70.2264 16.7168 70.881 16.8566C71.5357 16.9965 71.9946 17.1632 72.2579 17.3567C72.5211 17.5502 72.6528 17.8219 72.6528 18.1716C72.6528 18.5026 72.5048 18.7672 72.209 18.9654C71.9131 19.1636 71.5205 19.2627 71.0313 19.2627C70.5001 19.2627 70.0726 19.1356 69.7488 18.8815C69.425 18.6274 69.2514 18.2835 69.2281 17.8498H67.9352C67.9352 18.2975 68.0668 18.7136 68.33 19.0983C68.5933 19.483 68.9579 19.7826 69.4238 19.9971C69.8898 20.2116 70.4256 20.3188 71.0313 20.3188ZM78.1965 20.3188C78.518 20.3188 78.8488 20.2722 79.1889 20.1789V19.1298C78.928 19.1857 78.723 19.2137 78.5739 19.2137C78.271 19.2137 78.0567 19.1379 77.9309 18.9864C77.8051 18.8349 77.7422 18.6075 77.7422 18.3045V13.6113H79.154V12.6111H77.7422V10.7786H76.4492V12.6111H75.0724V13.6113H76.4492V18.3045C76.4492 18.9479 76.596 19.4445 76.8895 19.7942C77.1831 20.1439 77.6187 20.3188 78.1965 20.3188ZM84.1596 20.3188C85.4269 20.3188 86.3774 19.8315 87.0111 18.857L86.2213 18.2415C85.9837 18.5493 85.7065 18.7964 85.3896 18.9829C85.0728 19.1694 84.6861 19.2627 84.2295 19.2627C83.5865 19.2627 83.0565 19.033 82.6394 18.5737C82.2224 18.1144 82.0046 17.5118 81.986 16.7657H87.109V16.2272C87.109 15.0195 86.8364 14.0916 86.2912 13.4435C85.7461 12.7953 84.982 12.4713 83.9988 12.4713C83.3978 12.4713 82.8398 12.638 82.3249 12.9713C81.8101 13.3047 81.4094 13.7664 81.1228 14.3562C80.8363 14.9461 80.693 15.6163 80.693 16.367V16.6049C80.693 17.7333 81.0145 18.6343 81.6575 19.3081C82.3005 19.9819 83.1345 20.3188 84.1596 20.3188ZM85.816 15.7026H82.0279C82.1118 15.0172 82.3308 14.4844 82.6849 14.1044C83.039 13.7244 83.477 13.5344 83.9988 13.5344C84.5393 13.5344 84.968 13.7151 85.2848 14.0764C85.6016 14.4378 85.7787 14.9472 85.816 15.6047V15.7026ZM90.2554 20.1789V14.7863C90.4325 14.4226 90.6794 14.1289 90.9963 13.9051C91.3131 13.6813 91.6812 13.5694 92.1005 13.5694C92.6177 13.5694 92.9986 13.6999 93.2433 13.961C93.4879 14.2221 93.6125 14.6255 93.6172 15.171V20.1789H94.9101V15.178C94.8962 13.3735 94.0901 12.4713 92.4919 12.4713C91.5601 12.4713 90.8052 12.835 90.2275 13.5624L90.1855 12.6111H88.9625V20.1789H90.2554ZM104.222 20.3188C104.903 20.3188 105.505 20.1556 106.029 19.8292C106.553 19.5028 106.956 19.047 107.238 18.4618C107.52 17.8766 107.661 17.2157 107.661 16.479V16.388C107.661 15.2037 107.343 14.2548 106.707 13.5414C106.071 12.828 105.238 12.4713 104.208 12.4713C103.542 12.4713 102.949 12.6321 102.43 12.9539C101.91 13.2756 101.505 13.7326 101.214 14.3247C100.922 14.9169 100.777 15.5837 100.777 16.3251V16.416C100.777 17.591 101.095 18.5353 101.731 19.2487C102.367 19.9621 103.197 20.3188 104.222 20.3188ZM104.222 19.2627C103.57 19.2627 103.049 19.0085 102.66 18.5003C102.271 17.992 102.077 17.3183 102.077 16.479C102.077 15.5324 102.272 14.805 102.664 14.2968C103.055 13.7885 103.57 13.5344 104.208 13.5344C104.861 13.5344 105.384 13.792 105.777 14.3072C106.171 14.8225 106.368 15.4951 106.368 16.3251C106.368 17.253 106.175 17.9746 105.788 18.4898C105.401 19.005 104.879 19.2627 104.222 19.2627ZM110.933 20.1789V14.7863C111.11 14.4226 111.357 14.1289 111.674 13.9051C111.991 13.6813 112.359 13.5694 112.778 13.5694C113.296 13.5694 113.676 13.6999 113.921 13.961C114.166 14.2221 114.29 14.6255 114.295 15.171V20.1789H115.588V15.178C115.574 13.3735 114.768 12.4713 113.17 12.4713C112.238 12.4713 111.483 12.835 110.905 13.5624L110.863 12.6111H109.64V20.1789H110.933Z" fill="#5F6368"/>
</svg>
