<svg width="40" height="26" viewBox="0 0 40 26" fill="none" xmlns="http://www.w3.org/2000/svg">
<path d="M38.6124 22.9256C33.2818 23.4682 22.8944 17.598 20.267 7.34536V22.9857H1.88087C2.18289 21.3061 2.59389 19.7108 2.73283 18.0922C2.94998 15.5629 3.01238 13.0176 3.07478 10.4783C3.08976 9.85635 3.17711 9.53163 3.83855 9.33629C9.41287 7.69179 14.5779 5.14573 19.4142 1.93102C20.0524 1.50612 20.4867 1.5537 21.0965 1.9569C25.9445 5.15324 31.1087 7.69346 36.6797 9.35799C37.1231 9.49072 37.4667 9.58672 37.4243 10.1978C37.1356 14.4109 37.5907 18.5555 38.6099 22.6451C38.6219 22.7381 38.6228 22.8323 38.6124 22.9256V22.9256Z" stroke="black" stroke-linejoin="round"/>
</svg>
