<svg width="139" height="139" viewBox="0 0 139 139" fill="none" xmlns="http://www.w3.org/2000/svg">
<path d="M69.5 110.042C56.1792 110.042 32.4333 108.883 22.5875 106.567C18.5333 105.408 15.6375 102.513 14.4792 98.4584C12.7417 92.0875 11.5833 78.7667 11.5833 69.5C11.5833 60.2334 12.7417 46.9125 14.4792 40.5417C15.6375 36.4875 18.5333 33.5917 22.5875 32.4334C32.4333 30.1167 56.1792 28.9584 69.5 28.9584C82.8208 28.9584 106.567 30.1167 116.413 32.4334C120.467 33.5917 123.363 36.4875 124.521 40.5417C126.258 46.9125 127.417 60.2334 127.417 69.5C127.417 78.7667 126.258 92.0875 124.521 98.4584C123.363 102.513 120.467 105.408 116.413 106.567C106.567 108.883 82.8208 110.042 69.5 110.042Z" stroke="white" stroke-width="2" stroke-linecap="round" stroke-linejoin="round"/>
<path d="M57.9167 86.875L86.875 69.5L57.9167 52.125V86.875Z" stroke="white" stroke-width="2" stroke-linecap="round" stroke-linejoin="round"/>
</svg>
