<svg width="38" height="32" viewBox="0 0 38 32" fill="none" xmlns="http://www.w3.org/2000/svg">
<path d="M24.1233 15.7493L16.0483 10.1983C15.947 10.1286 15.8292 10.0886 15.7075 10.0826C15.5859 10.0765 15.4649 10.1046 15.3575 10.1638C15.2501 10.2231 15.1604 10.3113 15.0978 10.419C15.0352 10.5268 15.0021 10.65 15.0021 10.7756V21.8776C15.0021 22.0032 15.0352 22.1265 15.0978 22.2342C15.1604 22.342 15.2501 22.4302 15.3575 22.4894C15.4649 22.5487 15.5859 22.5768 15.7075 22.5707C15.8292 22.5646 15.947 22.5246 16.0483 22.455L24.1233 16.9039C24.2155 16.8406 24.291 16.7547 24.3433 16.654C24.3956 16.5533 24.4229 16.4408 24.4229 16.3266C24.4229 16.2124 24.3956 16.0999 24.3433 15.9992C24.291 15.8985 24.2155 15.8127 24.1233 15.7493ZM16.3479 20.5811V12.0721L22.5371 16.3266L16.3479 20.5811ZM35.6035 6.40522C35.4709 5.87361 35.2176 5.38213 34.8646 4.97133C34.5115 4.56052 34.0688 4.24218 33.5729 4.04256C27.8881 1.78972 18.7489 1.82406 18.3709 1.82597C17.985 1.82372 8.84542 1.78954 3.16028 4.04239C2.66448 4.24205 2.22182 4.56042 1.86882 4.97121C1.51583 5.38201 1.26262 5.87347 1.13009 6.40504C0.704812 8.08839 0.197937 11.1763 0.197937 16.3266C0.197937 21.4771 0.704812 24.5649 1.12993 26.2482C1.26249 26.7798 1.51575 27.2713 1.8688 27.6821C2.22185 28.0929 2.66458 28.4112 3.16045 28.6109C8.84525 30.8635 17.9845 30.8295 18.3625 30.8273C18.3813 30.8273 18.4214 30.8276 18.4814 30.8276C19.6393 30.8276 28.1676 30.7529 33.5731 28.6109C34.0689 28.4112 34.5116 28.0928 34.8646 27.682C35.2175 27.2712 35.4708 26.7798 35.6033 26.2482C36.0286 24.5649 36.5354 21.4769 36.5354 16.3266C36.5354 11.1761 36.0286 8.08839 35.6035 6.40504V6.40522ZM34.301 25.8985C34.2226 26.2167 34.0719 26.5112 33.8614 26.7575C33.6509 27.0039 33.3866 27.1951 33.0903 27.3154C27.644 29.4735 18.4634 29.4411 18.3625 29.4395C18.27 29.4395 9.08935 29.4735 3.6431 27.3154C3.3468 27.1951 3.08249 27.0038 2.87198 26.7574C2.66147 26.511 2.51078 26.2166 2.43236 25.8983C2.02692 24.2936 1.54377 21.3302 1.54377 16.3266C1.54377 11.3232 2.02709 8.3597 2.43236 6.75476C2.51078 6.43652 2.66147 6.14208 2.87198 5.89572C3.0825 5.64936 3.34681 5.45815 3.6431 5.33786C9.08952 3.17973 18.2703 3.21407 18.3709 3.21373C18.4627 3.21251 27.644 3.17955 33.0903 5.33786C33.3866 5.45819 33.6509 5.64943 33.8614 5.89582C34.0719 6.14221 34.2226 6.43668 34.301 6.75493C34.7065 8.3597 35.1896 11.3231 35.1896 16.3266C35.1896 21.33 34.7063 24.2936 34.301 25.8985Z" fill="black"/>
</svg>
